<svg width="18" height="22" viewBox="0 0 18 22" fill="none" xmlns="http://www.w3.org/2000/svg">
<path d="M13.14 10.34C14.0078 9.51274 14.6078 8.44449 14.8628 7.273C15.1177 6.10151 15.0159 4.88051 14.5703 3.76746C14.1248 2.65441 13.356 1.70035 12.3632 1.02833C11.3703 0.356303 10.1989 -0.00286865 9 -0.00286865C7.80109 -0.00286865 6.62968 0.356303 5.63682 1.02833C4.64396 1.70035 3.8752 2.65441 3.42967 3.76746C2.98414 4.88051 2.88228 6.10151 3.13722 7.273C3.39217 8.44449 3.99222 9.51274 4.86 10.34C3.44936 10.7929 2.2188 11.6818 1.34546 12.8786C0.472119 14.0754 0.00102941 15.5184 0 17C0 17.6566 0.129329 18.3068 0.380602 18.9134C0.631876 19.52 1.00017 20.0712 1.46447 20.5355C2.40215 21.4732 3.67392 22 5 22H13C13.6566 22 14.3068 21.8707 14.9134 21.6194C15.52 21.3681 16.0712 20.9998 16.5355 20.5355C16.9998 20.0712 17.3681 19.52 17.6194 18.9134C17.8707 18.3068 18 17.6566 18 17C17.999 15.5184 17.5279 14.0754 16.6545 12.8786C15.7812 11.6818 14.5506 10.7929 13.14 10.34ZM9 1.99999C9.79113 1.99999 10.5645 2.23458 11.2223 2.67411C11.8801 3.11363 12.3928 3.73835 12.6955 4.46925C12.9983 5.20016 13.0775 6.00442 12.9231 6.78035C12.7688 7.55627 12.3878 8.269 11.8284 8.82841C11.269 9.38783 10.5563 9.76879 9.78036 9.92313C9.00444 10.0775 8.20017 9.99826 7.46927 9.69551C6.73836 9.39276 6.11365 8.88006 5.67412 8.22227C5.2346 7.56447 5 6.79111 5 5.99999C5 4.93912 5.42143 3.92171 6.17157 3.17156C6.92172 2.42141 7.93913 1.99999 9 1.99999ZM13 20H5C4.20435 20 3.44129 19.6839 2.87868 19.1213C2.31607 18.5587 2 17.7956 2 17C2 15.6739 2.52678 14.4021 3.46447 13.4645C4.40215 12.5268 5.67392 12 7 12H11C12.3261 12 13.5979 12.5268 14.5355 13.4645C15.4732 14.4021 16 15.6739 16 17C16 17.7956 15.6839 18.5587 15.1213 19.1213C14.5587 19.6839 13.7956 20 13 20Z" fill="white"/>
</svg>
