<svg width="25" height="22" viewBox="0 0 25 22" fill="none" xmlns="http://www.w3.org/2000/svg">
<path d="M1 11H4.83333H6.98565C7.50386 11 7.76297 11 8.01095 11.0646C8.25892 11.1292 8.48509 11.2556 8.93742 11.5085L9.57234 11.8634C11.0031 12.6632 11.7184 13.0631 12.5 13.0631C13.2816 13.0631 13.9969 12.6632 15.4277 11.8634L16.0626 11.5085C16.5149 11.2556 16.7411 11.1292 16.9891 11.0646C17.237 11 17.4961 11 18.0143 11H20.1667H24V17C24 18.8856 24 19.8284 23.4142 20.4142C22.8284 21 21.8856 21 20 21H5C3.11438 21 2.17157 21 1.58579 20.4142C1 19.8284 1 18.8856 1 17V11Z" stroke="white" stroke-width="2"/>
<path d="M1 13V9.60122C1 8.90737 1 8.56044 1.11246 8.2394C1.22493 7.91835 1.44142 7.64727 1.87441 7.10509L5.54899 2.50387C6.13909 1.76497 6.43413 1.39552 6.84515 1.19776C7.25617 1 7.72898 1 8.67459 1H16.3254C17.271 1 17.7438 1 18.1548 1.19776C18.5659 1.39552 18.8609 1.76497 19.451 2.50387L23.1256 7.10509C23.5586 7.64727 23.7751 7.91835 23.8875 8.2394C24 8.56044 24 8.90737 24 9.60122V13" stroke="white" stroke-width="2"/>
<path d="M9 4H16" stroke="white" stroke-linecap="round"/>
<path d="M6 8H19" stroke="white" stroke-linecap="round"/>
</svg>
