<svg width="25" height="25" viewBox="0 0 25 25" fill="none" xmlns="http://www.w3.org/2000/svg">
<path d="M11.96 17.76C11.024 17.76 10.172 17.532 9.404 17.076C8.66 16.596 8.048 15.96 7.568 15.168C7.112 14.376 6.884 13.488 6.884 12.504C6.884 11.52 7.112 10.632 7.568 9.84C8.048 9.024 8.66 8.388 9.404 7.932C10.172 7.452 11.024 7.212 11.96 7.212C13.112 7.212 14.048 7.5 14.768 8.076C15.512 8.628 15.884 9.444 15.884 10.524V14.448C15.884 15.504 15.524 16.32 14.804 16.896C14.084 17.472 13.136 17.76 11.96 17.76ZM12.104 15.492C12.968 15.492 13.652 15.216 14.156 14.664C14.684 14.088 14.948 13.356 14.948 12.468C14.948 11.556 14.684 10.824 14.156 10.272C13.652 9.72 12.968 9.444 12.104 9.444C11.312 9.444 10.64 9.732 10.088 10.308C9.56 10.86 9.296 11.58 9.296 12.468C9.296 13.356 9.56 14.088 10.088 14.664C10.616 15.216 11.288 15.492 12.104 15.492ZM15.128 17.508V14.844L15.488 12.324L15.128 9.912V7.428H17.468V17.508H15.128ZM18.62 19.632L20.42 21.468C19.364 22.38 18.176 23.064 16.856 23.52C15.536 24 14.12 24.24 12.608 24.24C10.976 24.24 9.44 23.94 8 23.34C6.584 22.764 5.348 21.948 4.292 20.892C3.236 19.836 2.408 18.6 1.808 17.184C1.208 15.744 0.908 14.184 0.908 12.504C0.908 10.824 1.208 9.276 1.808 7.86C2.432 6.42 3.284 5.172 4.364 4.116C5.444 3.036 6.704 2.196 8.144 1.596C9.608 0.995999 11.168 0.696 12.824 0.696C15.032 0.696 16.976 1.2 18.656 2.208C20.36 3.216 21.692 4.596 22.652 6.348C23.636 8.1 24.128 10.116 24.128 12.396C24.128 13.428 24.02 14.364 23.804 15.204C23.612 16.02 23.288 16.788 22.832 17.508L20.06 17.364C20.396 16.884 20.66 16.404 20.852 15.924C21.068 15.42 21.224 14.868 21.32 14.268C21.416 13.668 21.464 12.984 21.464 12.216C21.464 10.32 21.116 8.712 20.42 7.392C19.748 6.048 18.764 5.028 17.468 4.332C16.196 3.612 14.66 3.252 12.86 3.252C11.036 3.252 9.428 3.636 8.036 4.404C6.668 5.172 5.6 6.252 4.832 7.644C4.088 9.012 3.716 10.644 3.716 12.54C3.716 14.412 4.076 16.032 4.796 17.4C5.54 18.768 6.584 19.836 7.928 20.604C9.272 21.348 10.808 21.72 12.536 21.72C13.808 21.72 14.948 21.54 15.956 21.18C16.964 20.844 17.852 20.328 18.62 19.632ZM16.136 15.384H22.832V17.508H16.136V15.384Z" fill="#F9F9F9"/>
</svg>
