<svg width="24" height="24" viewBox="0 0 24 24" fill="none" xmlns="http://www.w3.org/2000/svg">
<path d="M20.4439 13.87L19.0039 11.7V10C19.0019 8.31815 18.3945 6.69324 17.2927 5.42253C16.1909 4.15181 14.6685 3.32026 13.0039 3.08V2C13.0039 1.73478 12.8985 1.48043 12.711 1.29289C12.5235 1.10536 12.2691 1 12.0039 1C11.7387 1 11.4843 1.10536 11.2968 1.29289C11.1093 1.48043 11.0039 1.73478 11.0039 2V3.08C9.3393 3.32026 7.81685 4.15181 6.71508 5.42253C5.6133 6.69324 5.00587 8.31815 5.0039 10V11.7L3.5539 13.87C3.22251 14.3673 3.03238 14.9452 3.00378 15.5421C2.97519 16.139 3.10921 16.7324 3.39154 17.2591C3.67387 17.7858 4.09391 18.2259 4.60684 18.5325C5.11977 18.8391 5.70632 19.0007 6.3039 19H17.7039C18.5791 19 19.4185 18.6523 20.0373 18.0335C20.6562 17.4146 21.0039 16.5752 21.0039 15.7C21.0076 15.0472 20.8123 14.4089 20.4439 13.87ZM17.7039 17H6.3039C6.13318 17 5.96413 16.9664 5.80641 16.901C5.64868 16.8357 5.50537 16.74 5.38466 16.6192C5.26394 16.4985 5.16818 16.3552 5.10285 16.1975C5.03752 16.0398 5.0039 15.8707 5.0039 15.7C5.00735 15.4502 5.08382 15.2069 5.2239 15L6.8339 12.58C6.94903 12.4088 7.00841 12.2062 7.0039 12V10C7.0039 8.67392 7.53068 7.40215 8.46836 6.46447C9.40604 5.52678 10.6778 5 12.0039 5C13.33 5 14.6017 5.52678 15.5394 6.46447C16.4771 7.40215 17.0039 8.67392 17.0039 10V12C17.0054 12.196 17.0645 12.3873 17.1739 12.55L18.7839 15C18.9088 15.1954 18.9791 15.4206 18.9876 15.6523C18.9962 15.884 18.9426 16.1138 18.8324 16.3178C18.7222 16.5218 18.5595 16.6926 18.3611 16.8126C18.1626 16.9326 17.9357 16.9973 17.7039 17ZM14.0039 21H10.0039C9.73868 21 9.48433 21.1054 9.29679 21.2929C9.10925 21.4804 9.0039 21.7348 9.0039 22C9.0039 22.2652 9.10925 22.5196 9.29679 22.7071C9.48433 22.8946 9.73868 23 10.0039 23H14.0039C14.2691 23 14.5235 22.8946 14.711 22.7071C14.8985 22.5196 15.0039 22.2652 15.0039 22C15.0039 21.7348 14.8985 21.4804 14.711 21.2929C14.5235 21.1054 14.2691 21 14.0039 21Z" fill="#8EBBFF"/>
</svg>
