<svg width="30" height="30" viewBox="0 0 30 30" fill="none" xmlns="http://www.w3.org/2000/svg">
<path d="M22.5 1.25H7.5C6.67924 1.25 5.86651 1.41166 5.10823 1.72575C4.34994 2.03984 3.66095 2.50022 3.08058 3.08058C1.90848 4.25269 1.25 5.8424 1.25 7.5V22.5C1.25 23.3208 1.41166 24.1335 1.72575 24.8918C2.03984 25.6501 2.50022 26.3391 3.08058 26.9194C4.25269 28.0915 5.8424 28.75 7.5 28.75H22.5C23.3208 28.75 24.1335 28.5883 24.8918 28.2743C25.6501 27.9602 26.3391 27.4998 26.9194 26.9194C27.4998 26.3391 27.9602 25.6501 28.2743 24.8918C28.5883 24.1335 28.75 23.3208 28.75 22.5V7.5C28.75 6.67924 28.5883 5.86651 28.2743 5.10823C27.9602 4.34994 27.4998 3.66095 26.9194 3.08058C26.3391 2.50022 25.6501 2.03984 24.8918 1.72575C24.1335 1.41166 23.3208 1.25 22.5 1.25ZM3.75 7.5C3.75 6.50544 4.14509 5.55161 4.84835 4.84835C5.55161 4.14509 6.50544 3.75 7.5 3.75H22.5C23.4946 3.75 24.4484 4.14509 25.1517 4.84835C25.8549 5.55161 26.25 6.50544 26.25 7.5V8.75H3.75V7.5ZM22.5 26.25H7.5C6.50544 26.25 5.55161 25.8549 4.84835 25.1517C4.14509 24.4484 3.75 23.4946 3.75 22.5V11.25H26.25V22.5C26.25 23.4946 25.8549 24.4484 25.1517 25.1517C24.4484 25.8549 23.4946 26.25 22.5 26.25Z" fill="white"/>
<path d="M8.75 17.5H15C15.3315 17.5 15.6495 17.3683 15.8839 17.1339C16.1183 16.8995 16.25 16.5815 16.25 16.25C16.25 15.9185 16.1183 15.6005 15.8839 15.3661C15.6495 15.1317 15.3315 15 15 15H8.75C8.41848 15 8.10054 15.1317 7.86612 15.3661C7.6317 15.6005 7.5 15.9185 7.5 16.25C7.5 16.5815 7.6317 16.8995 7.86612 17.1339C8.10054 17.3683 8.41848 17.5 8.75 17.5ZM21.25 20H8.75C8.41848 20 8.10054 20.1317 7.86612 20.3661C7.6317 20.6005 7.5 20.9185 7.5 21.25C7.5 21.5815 7.6317 21.8995 7.86612 22.1339C8.10054 22.3683 8.41848 22.5 8.75 22.5H21.25C21.5815 22.5 21.8995 22.3683 22.1339 22.1339C22.3683 21.8995 22.5 21.5815 22.5 21.25C22.5 20.9185 22.3683 20.6005 22.1339 20.3661C21.8995 20.1317 21.5815 20 21.25 20Z" fill="white"/>
</svg>
