<svg width="18" height="18" viewBox="0 0 18 18" fill="none" xmlns="http://www.w3.org/2000/svg">
<g clip-path="url(#clip0_91_4735)">
<path d="M13.5 0.75H4.5C4.00754 0.75 3.51991 0.846997 3.06494 1.03545C2.60997 1.22391 2.19657 1.50013 1.84835 1.84835C1.14509 2.55161 0.75 3.50544 0.75 4.5V13.5C0.75 13.9925 0.846997 14.4801 1.03545 14.9351C1.22391 15.39 1.50013 15.8034 1.84835 16.1517C2.55161 16.8549 3.50544 17.25 4.5 17.25H13.5C13.9925 17.25 14.4801 17.153 14.9351 16.9645C15.39 16.7761 15.8034 16.4999 16.1517 16.1517C16.4999 15.8034 16.7761 15.39 16.9645 14.9351C17.153 14.4801 17.25 13.9925 17.25 13.5V4.5C17.25 4.00754 17.153 3.51991 16.9645 3.06494C16.7761 2.60997 16.4999 2.19657 16.1517 1.84835C15.8034 1.50013 15.39 1.22391 14.9351 1.03545C14.4801 0.846997 13.9925 0.75 13.5 0.75ZM2.25 4.5C2.25 3.90326 2.48705 3.33097 2.90901 2.90901C3.33097 2.48705 3.90326 2.25 4.5 2.25H13.5C14.0967 2.25 14.669 2.48705 15.091 2.90901C15.5129 3.33097 15.75 3.90326 15.75 4.5V5.25H2.25V4.5ZM13.5 15.75H4.5C3.90326 15.75 3.33097 15.5129 2.90901 15.091C2.48705 14.669 2.25 14.0967 2.25 13.5V6.75H15.75V13.5C15.75 14.0967 15.5129 14.669 15.091 15.091C14.669 15.5129 14.0967 15.75 13.5 15.75Z" fill="#8EBBFF"/>
<path d="M5.25 10.5H9C9.19891 10.5 9.38968 10.421 9.53033 10.2803C9.67098 10.1397 9.75 9.94891 9.75 9.75C9.75 9.55109 9.67098 9.36032 9.53033 9.21967C9.38968 9.07902 9.19891 9 9 9H5.25C5.05109 9 4.86032 9.07902 4.71967 9.21967C4.57902 9.36032 4.5 9.55109 4.5 9.75C4.5 9.94891 4.57902 10.1397 4.71967 10.2803C4.86032 10.421 5.05109 10.5 5.25 10.5ZM12.75 12H5.25C5.05109 12 4.86032 12.079 4.71967 12.2197C4.57902 12.3603 4.5 12.5511 4.5 12.75C4.5 12.9489 4.57902 13.1397 4.71967 13.2803C4.86032 13.421 5.05109 13.5 5.25 13.5H12.75C12.9489 13.5 13.1397 13.421 13.2803 13.2803C13.421 13.1397 13.5 12.9489 13.5 12.75C13.5 12.5511 13.421 12.3603 13.2803 12.2197C13.1397 12.079 12.9489 12 12.75 12Z" fill="#8EBBFF"/>
</g>
<defs>
<clipPath id="clip0_91_4735">
<rect width="18" height="18" fill="white"/>
</clipPath>
</defs>
</svg>
