<svg width="32" height="25" viewBox="0 0 32 25" fill="none" xmlns="http://www.w3.org/2000/svg">
<path d="M26.644 0H5.35597C3.936 0.00172476 2.57468 0.574482 1.57061 1.59264C0.566535 2.61079 0.0017009 3.99121 0 5.4311V19.5689C0.0017009 21.0088 0.566535 22.3892 1.57061 23.4074C2.57468 24.4255 3.936 24.9983 5.35597 25H26.644C28.064 24.9983 29.4253 24.4255 30.4294 23.4074C31.4335 22.3892 31.9983 21.0088 32 19.5689V5.4311C31.9983 3.99121 31.4335 2.61079 30.4294 1.59264C29.4253 0.574482 28.064 0.00172476 26.644 0ZM5.35597 2.17244H26.644C27.496 2.17336 28.3129 2.51698 28.9154 3.1279C29.5178 3.73881 29.8567 4.56713 29.8576 5.4311V6.85579H2.14239V5.4311C2.1433 4.56713 2.48216 3.73881 3.08463 3.1279C3.68709 2.51698 4.50396 2.17336 5.35597 2.17244ZM26.644 22.8276H5.35597C4.50396 22.8266 3.68709 22.483 3.08463 21.8721C2.48216 21.2612 2.1433 20.4329 2.14239 19.5689V9.02823H29.8576V19.5689C29.8567 20.4329 29.5178 21.2612 28.9154 21.8721C28.3129 22.483 27.496 22.8266 26.644 22.8276ZM26.9296 17.7475C26.9296 18.0356 26.8168 18.3119 26.6159 18.5156C26.415 18.7193 26.1425 18.8337 25.8584 18.8337H23.2901C23.006 18.8337 22.7336 18.7193 22.5327 18.5156C22.3318 18.3119 22.2189 18.0356 22.2189 17.7475C22.2189 17.4594 22.3318 17.1832 22.5327 16.9795C22.7336 16.7758 23.006 16.6613 23.2901 16.6613H25.8584C26.1425 16.6613 26.415 16.7758 26.6159 16.9795C26.8168 17.1832 26.9296 17.4594 26.9296 17.7475Z" fill="white"/>
</svg>
