<svg width="24" height="24" viewBox="0 0 24 24" fill="none" xmlns="http://www.w3.org/2000/svg">
<path d="M21.7319 17.12C22.8325 15.0455 23.2358 12.6716 22.8819 10.35C22.5304 7.44855 21.0408 4.80551 18.7407 3.00235C16.4406 1.19919 13.5183 0.383605 10.6169 0.735017C7.71539 1.08643 5.07236 2.57605 3.2692 4.87618C1.46604 7.17632 0.650451 10.0985 1.00186 13C1.23618 15.4479 2.27817 17.7483 3.96371 19.5389C5.64926 21.3294 7.88257 22.5084 10.3119 22.89C10.8718 22.9678 11.4366 23.0046 12.0019 23C13.7834 23.001 15.5381 22.565 17.1119 21.73L20.0619 22.52C20.4011 22.611 20.7582 22.6111 21.0975 22.5203C21.4367 22.4295 21.7461 22.2509 21.9944 22.0026C22.2427 21.7542 22.4213 21.4449 22.5121 21.1056C22.603 20.7664 22.6029 20.4092 22.5119 20.07L21.7319 17.12ZM19.7919 16.49C19.726 16.6039 19.6833 16.7296 19.6661 16.8601C19.649 16.9905 19.6577 17.123 19.6919 17.25L20.5919 20.59L17.2519 19.69C17.1248 19.6559 16.9923 19.6471 16.8619 19.6643C16.7315 19.6815 16.6057 19.7242 16.4919 19.79C15.296 20.4819 13.957 20.8892 12.5784 20.9804C11.1998 21.0715 9.81879 20.8441 8.54226 20.3157C7.26574 19.7873 6.12801 18.972 5.21721 17.9332C4.30642 16.8943 3.64702 15.6598 3.2901 14.3251C2.93318 12.9904 2.88832 11.5915 3.159 10.2367C3.42969 8.88189 4.00864 7.60759 4.85101 6.51253C5.69338 5.41747 6.77655 4.53105 8.0166 3.92193C9.25665 3.31281 10.6203 2.99736 12.0019 3.00002C12.2717 2.98507 12.5421 2.98507 12.8119 3.00002C14.3162 3.13467 15.7625 3.64577 17.0175 4.48621C18.2724 5.32665 19.2957 6.46941 19.993 7.8092C20.6903 9.14899 21.0391 10.6427 21.0075 12.1528C20.9758 13.6628 20.5647 15.1406 19.8119 16.45L19.7919 16.49Z" fill="white"/>
<path d="M16 13H8C7.73478 13 7.48043 13.1054 7.29289 13.2929C7.10536 13.4804 7 13.7348 7 14C7 14.2652 7.10536 14.5196 7.29289 14.7071C7.48043 14.8946 7.73478 15 8 15H16C16.2652 15 16.5196 14.8946 16.7071 14.7071C16.8946 14.5196 17 14.2652 17 14C17 13.7348 16.8946 13.4804 16.7071 13.2929C16.5196 13.1054 16.2652 13 16 13ZM16 9H8C7.73478 9 7.48043 9.10536 7.29289 9.29289C7.10536 9.48043 7 9.73478 7 10C7 10.2652 7.10536 10.5196 7.29289 10.7071C7.48043 10.8946 7.73478 11 8 11H16C16.2652 11 16.5196 10.8946 16.7071 10.7071C16.8946 10.5196 17 10.2652 17 10C17 9.73478 16.8946 9.48043 16.7071 9.29289C16.5196 9.10536 16.2652 9 16 9Z" fill="white"/>
</svg>
