<svg width="15" height="11" viewBox="0 0 15 11" fill="none" xmlns="http://www.w3.org/2000/svg">
<path d="M12.1822 0.471858L5.42267 7.00014L2.81777 4.53571C2.50513 4.23055 2.08285 4.06083 1.6438 4.06389C1.20476 4.06695 0.784923 4.24254 0.476658 4.55203C0.168394 4.86152 -0.00305075 5.27956 4.11047e-05 5.71418C0.00313296 6.1488 0.180508 6.56441 0.493145 6.86957L4.25212 10.5254C4.56102 10.8294 4.97887 11 5.41443 11C5.84999 11 6.26784 10.8294 6.57674 10.5254L14.5069 2.80572C14.6617 2.65462 14.7849 2.47481 14.8695 2.27657C14.9541 2.07833 14.9984 1.86553 15 1.65033C15.0015 1.43512 14.9602 1.22173 14.8784 1.02233C14.7966 0.822927 14.676 0.641422 14.5233 0.488179C14.3707 0.334935 14.1891 0.212954 13.9888 0.129199C13.7886 0.0454441 13.5736 0.00155615 13.3562 4.06386e-05C13.1388 -0.00147488 12.9232 0.0394115 12.7218 0.120366C12.5204 0.201321 12.337 0.320757 12.1822 0.471858Z" fill="#03752B"/>
</svg>
