<svg width="11" height="7" viewBox="0 0 11 7" fill="none" xmlns="http://www.w3.org/2000/svg">
<path d="M8.34224 0.33001L4.24224 4.33001L2.66224 2.82001C2.47261 2.63303 2.21647 2.52904 1.95017 2.53092C1.68387 2.53279 1.42922 2.64038 1.24224 2.83001C1.05526 3.01964 0.951275 3.27578 0.95315 3.54208C0.955025 3.80838 1.06261 4.06303 1.25224 4.25001L3.53224 6.49001C3.7196 6.67626 3.97306 6.7808 4.23724 6.7808C4.50143 6.7808 4.75488 6.67626 4.94224 6.49001L9.75224 1.76001C9.84614 1.66743 9.92088 1.55726 9.9722 1.43579C10.0235 1.31433 10.0504 1.18394 10.0513 1.05208C10.0523 0.920221 10.0272 0.789471 9.97761 0.667294C9.92801 0.545116 9.85482 0.433905 9.76224 0.34001C9.66966 0.246115 9.55949 0.171374 9.43802 0.120056C9.31656 0.068738 9.18617 0.041847 9.05431 0.0409185C8.92245 0.0399899 8.7917 0.0650417 8.66953 0.114644C8.54735 0.164247 8.43614 0.237428 8.34224 0.33001Z" fill="#8EBBFF"/>
</svg>
