<svg width="24" height="24" viewBox="0 0 24 24" fill="none" xmlns="http://www.w3.org/2000/svg">
<path d="M18 1H6C5.34339 1 4.69321 1.12933 4.08658 1.3806C3.47995 1.63188 2.92876 2.00017 2.46447 2.46447C1.52678 3.40215 1 4.67392 1 6V14C1 15.3261 1.52678 16.5979 2.46447 17.5355C2.92876 17.9998 3.47995 18.3681 4.08658 18.6194C4.69321 18.8707 5.34339 19 6 19H7.72L7.22 21H6C5.73478 21 5.48043 21.1054 5.29289 21.2929C5.10536 21.4804 5 21.7348 5 22C5 22.2652 5.10536 22.5196 5.29289 22.7071C5.48043 22.8946 5.73478 23 6 23H18C18.2652 23 18.5196 22.8946 18.7071 22.7071C18.8946 22.5196 19 22.2652 19 22C19 21.7348 18.8946 21.4804 18.7071 21.2929C18.5196 21.1054 18.2652 21 18 21H16.78L16.28 19H18C18.6566 19 19.3068 18.8707 19.9134 18.6194C20.52 18.3681 21.0712 17.9998 21.5355 17.5355C21.9998 17.0712 22.3681 16.52 22.6194 15.9134C22.8707 15.3068 23 14.6566 23 14V6C23 5.34339 22.8707 4.69321 22.6194 4.08658C22.3681 3.47995 21.9998 2.92876 21.5355 2.46447C21.0712 2.00017 20.52 1.63188 19.9134 1.3806C19.3068 1.12933 18.6566 1 18 1ZM14.72 21H9.28L9.78 19H14.22L14.72 21ZM21 14C21 14.7956 20.6839 15.5587 20.1213 16.1213C19.5587 16.6839 18.7956 17 18 17H6C5.20435 17 4.44129 16.6839 3.87868 16.1213C3.31607 15.5587 3 14.7956 3 14V6C3 5.20435 3.31607 4.44129 3.87868 3.87868C4.44129 3.31607 5.20435 3 6 3H18C18.7956 3 19.5587 3.31607 20.1213 3.87868C20.6839 4.44129 21 5.20435 21 6V14Z" fill="white"/>
<path d="M7 9H12C12.2652 9 12.5196 8.89464 12.7071 8.70711C12.8946 8.51957 13 8.26522 13 8C13 7.73478 12.8946 7.48043 12.7071 7.29289C12.5196 7.10536 12.2652 7 12 7H7C6.73478 7 6.48043 7.10536 6.29289 7.29289C6.10536 7.48043 6 7.73478 6 8C6 8.26522 6.10536 8.51957 6.29289 8.70711C6.48043 8.89464 6.73478 9 7 9ZM17 11H7C6.73478 11 6.48043 11.1054 6.29289 11.2929C6.10536 11.4804 6 11.7348 6 12C6 12.2652 6.10536 12.5196 6.29289 12.7071C6.48043 12.8946 6.73478 13 7 13H17C17.2652 13 17.5196 12.8946 17.7071 12.7071C17.8946 12.5196 18 12.2652 18 12C18 11.7348 17.8946 11.4804 17.7071 11.2929C17.5196 11.1054 17.2652 11 17 11Z" fill="white"/>
</svg>
