<svg width="24" height="24" viewBox="0 0 24 24" fill="none" xmlns="http://www.w3.org/2000/svg">
<path d="M9 3H15C15.2652 3 15.5196 2.89464 15.7071 2.70711C15.8946 2.51957 16 2.26522 16 2C16 1.73478 15.8946 1.48043 15.7071 1.29289C15.5196 1.10536 15.2652 1 15 1H9C8.73478 1 8.48043 1.10536 8.29289 1.29289C8.10536 1.48043 8 1.73478 8 2C8 2.26522 8.10536 2.51957 8.29289 2.70711C8.48043 2.89464 8.73478 3 9 3ZM20 5H4C3.73478 5 3.48043 5.10536 3.29289 5.29289C3.10536 5.48043 3 5.73478 3 6C3 6.26522 3.10536 6.51957 3.29289 6.70711C3.48043 6.89464 3.73478 7 4 7V18C4 18.6566 4.12933 19.3068 4.3806 19.9134C4.63188 20.52 5.00017 21.0712 5.46447 21.5355C6.40215 22.4732 7.67392 23 9 23H15C15.6566 23 16.3068 22.8707 16.9134 22.6194C17.52 22.3681 18.0712 21.9998 18.5355 21.5355C18.9998 21.0712 19.3681 20.52 19.6194 19.9134C19.8707 19.3068 20 18.6566 20 18V7C20.2652 7 20.5196 6.89464 20.7071 6.70711C20.8946 6.51957 21 6.26522 21 6C21 5.73478 20.8946 5.48043 20.7071 5.29289C20.5196 5.10536 20.2652 5 20 5ZM18 18C18 18.7956 17.6839 19.5587 17.1213 20.1213C16.5587 20.6839 15.7956 21 15 21H9C8.20435 21 7.44129 20.6839 6.87868 20.1213C6.31607 19.5587 6 18.7956 6 18V7H18V18Z" fill="#38B6FF"/>
<path d="M10 18C10.2652 18 10.5196 17.8946 10.7071 17.7071C10.8946 17.5196 11 17.2652 11 17V11C11 10.7348 10.8946 10.4804 10.7071 10.2929C10.5196 10.1054 10.2652 10 10 10C9.73478 10 9.48043 10.1054 9.29289 10.2929C9.10536 10.4804 9 10.7348 9 11V17C9 17.2652 9.10536 17.5196 9.29289 17.7071C9.48043 17.8946 9.73478 18 10 18ZM14 18C14.2652 18 14.5196 17.8946 14.7071 17.7071C14.8946 17.5196 15 17.2652 15 17V11C15 10.7348 14.8946 10.4804 14.7071 10.2929C14.5196 10.1054 14.2652 10 14 10C13.7348 10 13.4804 10.1054 13.2929 10.2929C13.1054 10.4804 13 10.7348 13 11V17C13 17.2652 13.1054 17.5196 13.2929 17.7071C13.4804 17.8946 13.7348 18 14 18Z" fill="#38B6FF"/>
</svg>
