<svg width="18" height="22" viewBox="0 0 18 22" fill="none" xmlns="http://www.w3.org/2000/svg">
<path d="M6 2H12C12.2652 2 12.5196 1.89464 12.7071 1.70711C12.8946 1.51957 13 1.26522 13 1C13 0.734784 12.8946 0.48043 12.7071 0.292893C12.5196 0.105357 12.2652 0 12 0H6C5.73478 0 5.48043 0.105357 5.29289 0.292893C5.10536 0.48043 5 0.734784 5 1C5 1.26522 5.10536 1.51957 5.29289 1.70711C5.48043 1.89464 5.73478 2 6 2ZM17 4H1C0.734784 4 0.48043 4.10536 0.292893 4.29289C0.105357 4.48043 0 4.73478 0 5C0 5.26522 0.105357 5.51957 0.292893 5.70711C0.48043 5.89464 0.734784 6 1 6V17C1 17.6566 1.12933 18.3068 1.3806 18.9134C1.63188 19.52 2.00017 20.0712 2.46447 20.5355C3.40215 21.4732 4.67392 22 6 22H12C12.6566 22 13.3068 21.8707 13.9134 21.6194C14.52 21.3681 15.0712 20.9998 15.5355 20.5355C15.9998 20.0712 16.3681 19.52 16.6194 18.9134C16.8707 18.3068 17 17.6566 17 17V6C17.2652 6 17.5196 5.89464 17.7071 5.70711C17.8946 5.51957 18 5.26522 18 5C18 4.73478 17.8946 4.48043 17.7071 4.29289C17.5196 4.10536 17.2652 4 17 4ZM15 17C15 17.7956 14.6839 18.5587 14.1213 19.1213C13.5587 19.6839 12.7956 20 12 20H6C5.20435 20 4.44129 19.6839 3.87868 19.1213C3.31607 18.5587 3 17.7956 3 17V6H15V17Z" fill="#E72C2C"/>
</svg>
