<svg width="24" height="24" viewBox="0 0 24 24" fill="none" xmlns="http://www.w3.org/2000/svg">
<path d="M22 11C21.7348 11 21.4804 11.1054 21.2929 11.2929C21.1054 11.4804 21 11.7348 21 12V18C21 18.7956 20.6839 19.5587 20.1213 20.1213C19.5587 20.6839 18.7956 21 18 21H6C5.20435 21 4.44129 20.6839 3.87868 20.1213C3.31607 19.5587 3 18.7956 3 18V6C3 5.20435 3.31607 4.44129 3.87868 3.87868C4.44129 3.31607 5.20435 3 6 3H12C12.2652 3 12.5196 2.89464 12.7071 2.70711C12.8946 2.51957 13 2.26522 13 2C13 1.73478 12.8946 1.48043 12.7071 1.29289C12.5196 1.10536 12.2652 1 12 1H6C5.34339 1 4.69321 1.12933 4.08658 1.3806C3.47995 1.63188 2.92876 2.00017 2.46447 2.46447C1.52678 3.40215 1 4.67392 1 6V18C1 18.6566 1.12933 19.3068 1.3806 19.9134C1.63188 20.52 2.00017 21.0712 2.46447 21.5355C3.40215 22.4732 4.67392 23 6 23H18C18.6566 23 19.3068 22.8707 19.9134 22.6194C20.52 22.3681 21.0712 21.9998 21.5355 21.5355C21.9998 21.0712 22.3681 20.52 22.6194 19.9134C22.8707 19.3068 23 18.6566 23 18V12C23 11.7348 22.8946 11.4804 22.7071 11.2929C22.5196 11.1054 22.2652 11 22 11Z" fill="white"/>
<path d="M7.88001 10.46C7.60016 10.7395 7.37834 11.0716 7.22732 11.4371C7.07629 11.8027 6.99904 12.1945 7.00001 12.59V14C7.00001 14.7957 7.31608 15.5587 7.87869 16.1213C8.4413 16.6839 9.20436 17 10 17H11.41C11.8055 17.001 12.1973 16.9237 12.5629 16.7727C12.9284 16.6217 13.2605 16.3999 13.54 16.12L22.12 7.54C22.3997 7.26129 22.6216 6.93011 22.773 6.56546C22.9244 6.2008 23.0024 5.80984 23.0024 5.415C23.0024 5.02016 22.9244 4.6292 22.773 4.26454C22.6216 3.89989 22.3997 3.56871 22.12 3.29L20.71 1.88C20.4313 1.60032 20.1001 1.37841 19.7355 1.22699C19.3708 1.07558 18.9798 0.997635 18.585 0.997635C18.1902 0.997635 17.7992 1.07558 17.4346 1.22699C17.0699 1.37841 16.7387 1.60032 16.46 1.88L7.88001 10.46ZM19.29 3.29L20.71 4.71C20.8963 4.89736 21.0008 5.15081 21.0008 5.415C21.0008 5.67919 20.8963 5.93264 20.71 6.12L19.85 7L17 4.15L17.86 3.29C17.9531 3.19475 18.0644 3.11908 18.1871 3.06741C18.3099 3.01574 18.4418 2.98913 18.575 2.98913C18.7082 2.98913 18.8401 3.01574 18.9629 3.06741C19.0857 3.11908 19.1969 3.19475 19.29 3.29ZM9.00001 12.59C8.99925 12.4584 9.02447 12.3279 9.07424 12.2061C9.124 12.0843 9.19733 11.9734 9.29001 11.88L15.6 5.57L18.43 8.4L12.12 14.71C12.0266 14.8027 11.9158 14.876 11.7939 14.9258C11.6721 14.9755 11.5416 15.0008 11.41 15H10C9.73479 15 9.48044 14.8946 9.2929 14.7071C9.10537 14.5196 9.00001 14.2652 9.00001 14V12.59Z" fill="white"/>
</svg>
