<svg width="26" height="26" viewBox="0 0 26 26" fill="none" xmlns="http://www.w3.org/2000/svg">
<path fill-rule="evenodd" clip-rule="evenodd" d="M13.254 2.0625C13.9142 2.0625 15.8438 2.31641 17.5196 5.10938C19.6524 8.5625 24.172 16.6875 24.172 16.6875C24.172 16.6875 25.6954 19.0234 25.4923 20.3945V20.6992C25.4923 22.0703 24.3751 23.1875 23.004 23.1875H3.504C2.1329 23.1875 1.01572 22.0703 1.01572 20.6992V20.3945C0.812592 19.0234 2.33603 16.6875 2.33603 16.6875C2.33603 16.6875 6.85556 8.5625 8.98837 5.10938C10.6642 2.31641 12.5938 2.0625 13.254 2.0625ZM13.254 19.9375C13.9649 19.9375 14.5235 19.3789 14.5235 18.668C14.5235 17.957 13.9649 17.3984 13.254 17.3984C12.5431 17.3984 11.9845 17.957 11.9845 18.668C11.9845 19.3789 12.5431 19.9375 13.254 19.9375ZM13.254 7.03906C14.2188 7.03906 15.0313 7.85156 15.0313 8.81641C15.0313 9.78125 14.2188 16.4844 13.254 16.4844C12.2892 16.4844 11.4767 9.78125 11.4767 8.81641C11.4767 7.85156 12.2892 7.03906 13.254 7.03906Z" fill="#B91C1C"/>
</svg>
