<svg width="24" height="24" viewBox="0 0 24 24" fill="none" xmlns="http://www.w3.org/2000/svg">
<path d="M12.0007 20C7.52072 20 3.71072 16.42 1.85072 14.28C1.31151 13.6427 1.01562 12.8348 1.01562 12C1.01562 11.1652 1.31151 10.3573 1.85072 9.72C3.71072 7.58 7.52072 4 12.0007 4C16.4807 4 20.2907 7.58 22.1507 9.72C22.6881 10.3582 22.9827 11.1657 22.9827 12C22.9827 12.8343 22.6881 13.6418 22.1507 14.28C20.2907 16.42 16.4807 20 12.0007 20ZM12.0007 6C8.31072 6 5.00072 9.16 3.35072 11C3.12804 11.2704 3.00627 11.6097 3.00627 11.96C3.00627 12.3103 3.12804 12.6496 3.35072 12.92C5.00072 14.8 8.35072 17.92 12.0007 17.92C15.6507 17.92 19.0007 14.76 20.6507 12.92C20.8734 12.6496 20.9952 12.3103 20.9952 11.96C20.9952 11.6097 20.8734 11.2704 20.6507 11C19.0007 9.16 15.6907 6 12.0007 6Z" fill="white"/>
<path d="M12 16C11.2089 16 10.4355 15.7654 9.77772 15.3259C9.11993 14.8864 8.60723 14.2616 8.30448 13.5307C8.00173 12.7998 7.92252 11.9956 8.07686 11.2196C8.2312 10.4437 8.61216 9.73098 9.17157 9.17157C9.73098 8.61216 10.4437 8.2312 11.2196 8.07686C11.9956 7.92252 12.7998 8.00173 13.5307 8.30448C14.2616 8.60723 14.8864 9.11993 15.3259 9.77772C15.7654 10.4355 16 11.2089 16 12C16 13.0609 15.5786 14.0783 14.8284 14.8284C14.0783 15.5786 13.0609 16 12 16ZM12 10C11.6044 10 11.2178 10.1173 10.8889 10.3371C10.56 10.5568 10.3036 10.8692 10.1522 11.2346C10.0009 11.6001 9.96126 12.0022 10.0384 12.3902C10.1156 12.7781 10.3061 13.1345 10.5858 13.4142C10.8655 13.6939 11.2219 13.8844 11.6098 13.9616C11.9978 14.0387 12.3999 13.9991 12.7654 13.8478C13.1308 13.6964 13.4432 13.44 13.6629 13.1111C13.8827 12.7822 14 12.3956 14 12C14 11.4696 13.7893 10.9609 13.4142 10.5858C13.0391 10.2107 12.5304 10 12 10Z" fill="white"/>
</svg>
