<svg width="24" height="24" viewBox="0 0 24 24" fill="none" xmlns="http://www.w3.org/2000/svg">
<path fill-rule="evenodd" clip-rule="evenodd" d="M22.75 5.5C22.75 4.771 22.46 4.071 21.945 3.555C21.4288 3.0398 20.7293 2.75031 20 2.75H4C3.271 2.75 2.571 3.04 2.055 3.555C1.5398 4.07122 1.25031 4.77067 1.25 5.5V15.5C1.25 16.2293 1.53973 16.9288 2.05546 17.4445C2.57118 17.9603 3.27065 18.25 4 18.25H8.379L11.498 21.057C11.6358 21.1811 11.8146 21.2498 12 21.2498C12.1854 21.2498 12.3642 21.1811 12.502 21.057L15.621 18.25H20C20.7293 18.25 21.4288 17.9603 21.9445 17.4445C22.4603 16.9288 22.75 16.2293 22.75 15.5V5.5ZM21.25 5.5V15.5C21.25 16.19 20.69 16.75 20 16.75H15.333C15.1479 16.7501 14.9694 16.8189 14.832 16.943L12 19.491L9.168 16.943C9.03064 16.8189 8.85213 16.7501 8.667 16.75H4C3.31 16.75 2.75 16.19 2.75 15.5V5.5C2.75053 5.16864 2.88239 4.85101 3.1167 4.6167C3.35101 4.38239 3.66864 4.25053 4 4.25H20C20.3314 4.25053 20.649 4.38239 20.8833 4.6167C21.1176 4.85101 21.2495 5.16864 21.25 5.5Z" fill="#B91C1C"/>
<path fill-rule="evenodd" clip-rule="evenodd" d="M12.75 12V7C12.75 6.80109 12.671 6.61032 12.5303 6.46967C12.3897 6.32902 12.1989 6.25 12 6.25C11.8011 6.25 11.6103 6.32902 11.4697 6.46967C11.329 6.61032 11.25 6.80109 11.25 7V12C11.25 12.1989 11.329 12.3897 11.4697 12.5303C11.6103 12.671 11.8011 12.75 12 12.75C12.1989 12.75 12.3897 12.671 12.5303 12.5303C12.671 12.3897 12.75 12.1989 12.75 12Z" fill="#B91C1C"/>
<path d="M12 15.5C12.5523 15.5 13 15.0523 13 14.5C13 13.9477 12.5523 13.5 12 13.5C11.4477 13.5 11 13.9477 11 14.5C11 15.0523 11.4477 15.5 12 15.5Z" fill="#B91C1C"/>
</svg>
