<svg width="24" height="25" viewBox="0 0 24 25" fill="none" xmlns="http://www.w3.org/2000/svg">
<path d="M15 1.85178H9C7.67392 1.85178 6.40215 2.37856 5.46447 3.31624C4.52678 4.25392 4 5.52569 4 6.85178V18.8518C4 19.5084 4.12933 20.1586 4.3806 20.7652C4.63188 21.3718 5.00017 21.923 5.46447 22.3873C6.40215 23.325 7.67392 23.8518 9 23.8518H15C15.6566 23.8518 16.3068 23.7224 16.9134 23.4712C17.52 23.2199 18.0712 22.8516 18.5355 22.3873C18.9998 21.923 19.3681 21.3718 19.6194 20.7652C19.8707 20.1586 20 19.5084 20 18.8518V6.85178C20 6.19517 19.8707 5.54499 19.6194 4.93836C19.3681 4.33173 18.9998 3.78054 18.5355 3.31624C18.0712 2.85195 17.52 2.48365 16.9134 2.23238C16.3068 1.9811 15.6566 1.85178 15 1.85178ZM18 18.8518C18 19.6474 17.6839 20.4105 17.1213 20.9731C16.5587 21.5357 15.7956 21.8518 15 21.8518H9C8.20435 21.8518 7.44129 21.5357 6.87868 20.9731C6.31607 20.4105 6 19.6474 6 18.8518V6.85178C6 6.05613 6.31607 5.29307 6.87868 4.73046C7.44129 4.16785 8.20435 3.85178 9 3.85178C9 4.11699 9.10536 4.37135 9.29289 4.55888C9.48043 4.74642 9.73478 4.85178 10 4.85178H14C14.2652 4.85178 14.5196 4.74642 14.7071 4.55888C14.8946 4.37135 15 4.11699 15 3.85178C15.7956 3.85178 16.5587 4.16785 17.1213 4.73046C17.6839 5.29307 18 6.05613 18 6.85178V18.8518Z" fill="white"/>
<path d="M13 17.8518H11C10.7348 17.8518 10.4804 17.9571 10.2929 18.1447C10.1054 18.3322 10 18.5866 10 18.8518C10 19.117 10.1054 19.3713 10.2929 19.5589C10.4804 19.7464 10.7348 19.8518 11 19.8518H13C13.2652 19.8518 13.5196 19.7464 13.7071 19.5589C13.8946 19.3713 14 19.117 14 18.8518C14 18.5866 13.8946 18.3322 13.7071 18.1447C13.5196 17.9571 13.2652 17.8518 13 17.8518Z" fill="white"/>
</svg>
