<svg width="24" height="24" viewBox="0 0 24 24" fill="none" xmlns="http://www.w3.org/2000/svg">
<path d="M19.77 5.16998L14.77 1.83998C13.9494 1.29391 12.9857 1.00256 12 1.00256C11.0143 1.00256 10.0506 1.29391 9.23 1.83998L4.23 5.16998C3.54449 5.62615 2.98226 6.24456 2.59323 6.97028C2.2042 7.696 2.00043 8.50657 2 9.32998V18C2 18.6566 2.12933 19.3068 2.3806 19.9134C2.63188 20.52 3.00017 21.0712 3.46447 21.5355C4.40215 22.4732 5.67392 23 7 23H17C17.6566 23 18.3068 22.8707 18.9134 22.6194C19.52 22.3681 20.0712 21.9998 20.5355 21.5355C20.9998 21.0712 21.3681 20.52 21.6194 19.9134C21.8707 19.3068 22 18.6566 22 18V9.32998C21.9996 8.50657 21.7958 7.696 21.4068 6.97028C21.0177 6.24456 20.4555 5.62615 19.77 5.16998ZM20 18C20 18.7956 19.6839 19.5587 19.1213 20.1213C18.5587 20.6839 17.7956 21 17 21H7C6.20435 21 5.44129 20.6839 4.87868 20.1213C4.31607 19.5587 4 18.7956 4 18V9.32998C4.00146 8.83677 4.1245 8.35152 4.35823 7.9172C4.59196 7.48288 4.92917 7.11289 5.34 6.83998L10.34 3.49998C10.8319 3.17318 11.4094 2.99886 12 2.99886C12.5906 2.99886 13.1681 3.17318 13.66 3.49998L18.66 6.83998C19.0708 7.11289 19.408 7.48288 19.6418 7.9172C19.8755 8.35152 19.9985 8.83677 20 9.32998V18Z" fill="white"/>
<path d="M15 15H9C8.73478 15 8.48043 15.1054 8.29289 15.2929C8.10536 15.4804 8 15.7348 8 16C8 16.2652 8.10536 16.5196 8.29289 16.7071C8.48043 16.8946 8.73478 17 9 17H15C15.2652 17 15.5196 16.8946 15.7071 16.7071C15.8946 16.5196 16 16.2652 16 16C16 15.7348 15.8946 15.4804 15.7071 15.2929C15.5196 15.1054 15.2652 15 15 15Z" fill="white"/>
</svg>
