<svg width="30" height="30" viewBox="0 0 30 30" fill="none" xmlns="http://www.w3.org/2000/svg">
<path d="M23.4877 5.33753C22.532 4.1242 21.3261 3.13104 19.9521 2.42569C18.5781 1.72034 17.0682 1.31935 15.5252 1.25003C14.0115 1.17831 12.4991 1.41625 11.0805 1.94928C9.66198 2.48232 8.36712 3.29923 7.27521 4.35003C6.15257 5.42252 5.26083 6.71303 4.65468 8.14242C4.04853 9.57181 3.74075 11.11 3.75021 12.6625C3.75021 21.1375 10.2002 26.25 12.9752 28.1375C13.5862 28.5381 14.3009 28.7516 15.0315 28.7516C15.7621 28.7516 16.4767 28.5381 17.0877 28.1375C20.0002 26.25 25.0002 22.0125 26.0752 15.3C26.3759 13.5509 26.3006 11.7579 25.8545 10.0401C25.4083 8.32233 24.6015 6.71926 23.4877 5.33753ZM23.6127 14.8875C22.6252 20.8875 17.7627 24.6875 15.7127 26.0375C15.5099 26.1693 15.2733 26.2395 15.0315 26.2395C14.7896 26.2395 14.553 26.1693 14.3502 26.0375C11.9127 24.4375 6.25021 19.925 6.25021 12.6625C6.24151 11.4496 6.48224 10.2478 6.95746 9.13178C7.43268 8.01576 8.13224 7.00935 9.01271 6.17503C10.6183 4.62046 12.7653 3.75089 15.0002 3.75003H15.3877C16.5764 3.80591 17.7394 4.11599 18.7981 4.65937C19.8568 5.20276 20.7868 5.96681 21.5252 6.90003C22.4217 8.00608 23.0717 9.29081 23.4317 10.6683C23.7917 12.0458 23.8534 13.4843 23.6127 14.8875Z" fill="white"/>
<path d="M15 7.5C14.0111 7.5 13.0444 7.79324 12.2222 8.34265C11.3999 8.89206 10.759 9.67295 10.3806 10.5866C10.0022 11.5002 9.90315 12.5055 10.0961 13.4755C10.289 14.4454 10.7652 15.3363 11.4645 16.0355C12.1637 16.7348 13.0546 17.211 14.0246 17.4039C14.9945 17.5969 15.9998 17.4978 16.9134 17.1194C17.8271 16.741 18.6079 16.1001 19.1574 15.2779C19.7068 14.4556 20 13.4889 20 12.5C20 11.1739 19.4732 9.90215 18.5355 8.96447C17.5979 8.02678 16.3261 7.5 15 7.5ZM15 15C14.5055 15 14.0222 14.8534 13.6111 14.5787C13.2 14.304 12.8795 13.9135 12.6903 13.4567C12.5011 12.9999 12.4516 12.4972 12.548 12.0123C12.6445 11.5273 12.8826 11.0819 13.2322 10.7322C13.5819 10.3826 14.0273 10.1445 14.5123 10.048C14.9972 9.95157 15.4999 10.0011 15.9567 10.1903C16.4135 10.3795 16.804 10.7 17.0787 11.1111C17.3534 11.5222 17.5 12.0055 17.5 12.5C17.5 13.163 17.2366 13.7989 16.7678 14.2678C16.2989 14.7366 15.663 15 15 15Z" fill="white"/>
</svg>
