<svg width="18" height="18" viewBox="0 0 18 18" fill="none" xmlns="http://www.w3.org/2000/svg">
<path d="M14.0926 3.20248C13.5192 2.47448 12.7957 1.87859 11.9713 1.45538C11.1468 1.03217 10.2409 0.791574 9.31513 0.749981C8.40691 0.706949 7.49946 0.849712 6.64832 1.16953C5.79719 1.48935 5.02027 1.9795 4.36513 2.60998C3.69154 3.25348 3.1565 4.02778 2.79281 4.88542C2.42912 5.74305 2.24445 6.66594 2.25013 7.59748C2.25013 12.6825 6.12013 15.75 7.78513 16.8825C8.15171 17.1228 8.58052 17.2509 9.01888 17.2509C9.45723 17.2509 9.88605 17.1228 10.2526 16.8825C12.0001 15.75 15.0001 13.2075 15.6451 9.17998C15.8255 8.13052 15.7804 7.05468 15.5127 6.02402C15.245 4.99336 14.7609 4.03152 14.0926 3.20248ZM14.1676 8.93248C13.5751 12.5325 10.6576 14.8125 9.42763 15.6225C9.30597 15.7016 9.16398 15.7437 9.01888 15.7437C8.87377 15.7437 8.73179 15.7016 8.61013 15.6225C7.14763 14.6625 3.75013 11.955 3.75013 7.59748C3.7449 6.86971 3.88934 6.14864 4.17447 5.47903C4.45961 4.80942 4.87934 4.20557 5.40763 3.70498C6.37099 2.77224 7.6592 2.2505 9.00013 2.24998H9.23263C9.94586 2.28351 10.6436 2.46956 11.2789 2.79559C11.9141 3.12162 12.4721 3.58005 12.9151 4.13998C13.453 4.80361 13.843 5.57445 14.059 6.40095C14.275 7.22744 14.3121 8.09053 14.1676 8.93248Z" fill="#8EBBFF"/>
<path d="M9 4.5C8.40666 4.5 7.82664 4.67595 7.33329 5.00559C6.83994 5.33524 6.45543 5.80377 6.22836 6.35195C6.0013 6.90013 5.94189 7.50333 6.05765 8.08527C6.1734 8.66721 6.45912 9.20176 6.87868 9.62132C7.29824 10.0409 7.83279 10.3266 8.41473 10.4424C8.99667 10.5581 9.59987 10.4987 10.1481 10.2716C10.6962 10.0446 11.1648 9.66006 11.4944 9.16671C11.8241 8.67336 12 8.09334 12 7.5C12 6.70435 11.6839 5.94129 11.1213 5.37868C10.5587 4.81607 9.79565 4.5 9 4.5ZM9 9C8.70333 9 8.41332 8.91203 8.16665 8.7472C7.91997 8.58238 7.72771 8.34811 7.61418 8.07402C7.50065 7.79994 7.47095 7.49834 7.52882 7.20736C7.5867 6.91639 7.72956 6.64912 7.93934 6.43934C8.14912 6.22956 8.41639 6.0867 8.70737 6.02882C8.99834 5.97094 9.29994 6.00065 9.57403 6.11418C9.84812 6.22771 10.0824 6.41997 10.2472 6.66664C10.412 6.91332 10.5 7.20333 10.5 7.5C10.5 7.89782 10.342 8.27936 10.0607 8.56066C9.77936 8.84196 9.39783 9 9 9Z" fill="#8EBBFF"/>
</svg>
