<svg width="26" height="26" viewBox="0 0 26 26" fill="none" xmlns="http://www.w3.org/2000/svg">
<path d="M24.5999 12.2308L21.3499 8.98083C21.1459 8.77684 20.8692 8.66223 20.5807 8.66223C20.2922 8.66223 20.0156 8.77684 19.8116 8.98083C19.6076 9.18483 19.493 9.4615 19.493 9.75C19.493 10.0385 19.6076 10.3152 19.8116 10.5192L21.2199 11.9167H6.4974C6.21008 11.9167 5.93453 12.0308 5.73136 12.234C5.5282 12.4371 5.41406 12.7127 5.41406 13C5.41406 13.2873 5.5282 13.5629 5.73136 13.766C5.93453 13.9692 6.21008 14.0833 6.4974 14.0833H21.2199L19.8116 15.4808C19.71 15.5815 19.6294 15.7014 19.5744 15.8334C19.5194 15.9654 19.4911 16.107 19.4911 16.25C19.4911 16.393 19.5194 16.5346 19.5744 16.6666C19.6294 16.7986 19.71 16.9185 19.8116 17.0192C19.9123 17.1207 20.0321 17.2013 20.1641 17.2563C20.2961 17.3113 20.4377 17.3396 20.5807 17.3396C20.7237 17.3396 20.8653 17.3113 20.9974 17.2563C21.1294 17.2013 21.2492 17.1207 21.3499 17.0192L24.5999 13.7692C24.7014 13.6685 24.782 13.5486 24.837 13.4166C24.892 13.2846 24.9203 13.143 24.9203 13C24.9203 12.857 24.892 12.7154 24.837 12.5834C24.782 12.4514 24.7014 12.3315 24.5999 12.2308Z" fill="white"/>
<path d="M14.0859 17.3333C13.7986 17.3333 13.5231 17.4475 13.3199 17.6506C13.1167 17.8538 13.0026 18.1294 13.0026 18.4167C13.0026 19.2786 12.6602 20.1053 12.0507 20.7148C11.4412 21.3243 10.6146 21.6667 9.7526 21.6667H6.5026C5.64065 21.6667 4.814 21.3243 4.20451 20.7148C3.59501 20.1053 3.2526 19.2786 3.2526 18.4167V7.58334C3.2526 6.72138 3.59501 5.89473 4.20451 5.28524C4.814 4.67575 5.64065 4.33334 6.5026 4.33334H9.7526C10.6146 4.33334 11.4412 4.67575 12.0507 5.28524C12.6602 5.89473 13.0026 6.72138 13.0026 7.58334C13.0026 7.87066 13.1167 8.14621 13.3199 8.34937C13.5231 8.55253 13.7986 8.66667 14.0859 8.66667C14.3733 8.66667 14.6488 8.55253 14.852 8.34937C15.0551 8.14621 15.1693 7.87066 15.1693 7.58334C15.1693 6.87201 15.0292 6.16765 14.757 5.51047C14.4847 4.85329 14.0857 4.25616 13.5828 3.75318C13.0798 3.25019 12.4827 2.8512 11.8255 2.57899C11.1683 2.30678 10.4639 2.16667 9.7526 2.16667H6.5026C5.79128 2.16667 5.08692 2.30678 4.42974 2.57899C3.77255 2.8512 3.17543 3.25019 2.67244 3.75318C1.65662 4.769 1.08594 6.14675 1.08594 7.58334V18.4167C1.08594 19.8533 1.65662 21.231 2.67244 22.2468C3.17543 22.7498 3.77255 23.1488 4.42974 23.421C5.08692 23.6932 5.79128 23.8333 6.5026 23.8333H9.7526C10.4639 23.8333 11.1683 23.6932 11.8255 23.421C12.4827 23.1488 13.0798 22.7498 13.5828 22.2468C14.0857 21.7438 14.4847 21.1467 14.757 20.4895C15.0292 19.8324 15.1693 19.128 15.1693 18.4167C15.1693 18.1294 15.0551 17.8538 14.852 17.6506C14.6488 17.4475 14.3733 17.3333 14.0859 17.3333Z" fill="white"/>
</svg>
