<svg width="29" height="29" viewBox="0 0 29 29" fill="none" xmlns="http://www.w3.org/2000/svg">
<path d="M2.71875 23.1716H5.14301C5.70937 23.1716 6.18871 22.8096 6.37301 22.3063H7.24115C7.41328 22.3063 7.57746 22.351 7.72901 22.4393L11.2268 24.4783C13.1049 25.5759 15.3985 25.6709 17.359 24.7414L26.1671 20.5683C26.9952 20.1785 27.3902 19.2324 27.0859 18.3684C26.7898 17.4883 25.7976 16.9762 24.9097 17.2489C24.9097 17.2489 20.0458 18.6617 20.0458 18.6617C19.7658 17.8797 19.0248 17.3155 18.1478 17.3155H14.8726C14.6002 17.3155 14.3347 17.2383 14.1048 17.0925L12.4851 16.0643C11.8069 15.6338 11.0241 15.4063 10.221 15.4063H6.37196C6.18677 14.9048 5.70815 14.5443 5.14301 14.5443H2.71875C2.21894 14.5443 1.8125 14.9508 1.8125 15.4506V22.2654C1.8125 22.7652 2.21894 23.1716 2.71875 23.1716ZM2.71875 15.4506H5.14301C5.3678 15.4506 5.55078 15.6335 5.55078 15.8583C5.54993 16.1118 5.76067 16.3132 6.0059 16.3126H10.221C10.8518 16.3126 11.4666 16.4913 11.9992 16.8294L13.6192 17.8576C13.9944 18.0958 14.4279 18.2217 14.8726 18.2217H18.1478C19.6167 18.2591 19.6235 20.4162 18.1478 20.4553C18.1478 20.4553 13.4597 20.4553 13.4597 20.4553C13.2094 20.4553 13.0065 20.6582 13.0065 20.9084C13.0065 21.1586 13.2094 21.3615 13.4597 21.3615H18.1478C19.182 21.3615 20.0276 20.5786 20.1469 19.5761L25.1641 18.1186C26.18 17.8345 26.7422 19.2904 25.7801 19.7488C25.7801 19.7488 16.9709 23.9223 16.9709 23.9223C15.2768 24.7252 13.3006 24.6405 11.6835 23.6957L8.18524 21.6565C7.70857 21.3408 7.00015 21.4004 6.45701 21.4001C6.45703 21.4 6.45703 18.1239 6.45703 18.1239C6.45703 17.8737 6.25414 17.6708 6.00391 17.6708C5.75367 17.6708 5.55078 17.8737 5.55078 18.1239V21.8576C5.55078 22.0824 5.3678 22.2653 5.14301 22.2653H2.71875V15.4506Z" fill="#A16207"/>
<path d="M4.13517 16.4549C3.53954 16.465 3.53961 17.3511 4.13519 17.3611C4.73081 17.351 4.73071 16.4649 4.13517 16.4549ZM15.9731 10.6485H17.6723C18.2667 10.6395 18.2685 9.75184 17.6723 9.74224C17.6723 9.74224 16.766 9.74224 16.766 9.74224V9.44177C16.766 9.19153 16.5631 8.98865 16.3129 8.98865C16.0627 8.98865 15.8598 9.19153 15.8598 9.44177V9.75368C13.999 9.93443 14.1014 12.6455 15.9731 12.6875C15.9731 12.6875 16.6527 12.6875 16.6527 12.6875C16.9652 12.6875 17.2192 12.9415 17.2192 13.2539C17.2192 13.5664 16.9652 13.8204 16.6527 13.8204H14.9535C14.3591 13.8293 14.3573 14.717 14.9535 14.7266C14.9535 14.7266 15.8598 14.7266 15.8598 14.7266V15.0271C15.8694 15.6209 16.7558 15.624 16.766 15.027C16.766 15.0271 16.766 14.7152 16.766 14.7152C18.6268 14.5344 18.5244 11.8234 16.6527 11.7813C16.6527 11.7813 15.9731 11.7813 15.9731 11.7813C15.2291 11.7686 15.2286 10.6613 15.9731 10.6485Z" fill="#A16207"/>
<path d="M7.83588 13.2344C8.01287 13.4114 8.29962 13.4114 8.47662 13.2344L9.836 11.8751C10.2549 11.4543 9.61423 10.8173 9.19523 11.2343C9.19525 11.2343 8.63147 11.7981 8.63147 11.7981C9.54373 1.90613 23.6497 2.28618 24.0156 12.2345C24.0156 13.3864 23.7667 14.4934 23.2758 15.524C23.1274 15.8146 23.3618 16.1794 23.6846 16.172C23.8539 16.172 24.0163 16.0769 24.0939 15.9138C24.6433 14.7604 24.9219 13.5225 24.9219 12.2344C24.9219 7.48718 21.0597 3.625 16.3125 3.625C11.6984 3.625 7.93123 7.27652 7.72309 11.8402L7.11725 11.2343C6.94025 11.0573 6.6535 11.0573 6.4765 11.2343C6.2995 11.4113 6.2995 11.6981 6.4765 11.8751L7.83588 13.2344Z" fill="#A16207"/>
</svg>
