<svg width="32" height="32" viewBox="0 0 32 32" fill="none" xmlns="http://www.w3.org/2000/svg">
<path d="M24.9943 6.99635C25.1263 6.99584 25.2571 7.02127 25.3791 7.07155C25.5011 7.12182 25.612 7.19575 25.7053 7.28907C25.7986 7.38239 25.8725 7.49322 25.9228 7.61525C25.9731 7.73727 25.9987 7.86804 25.9982 8.00001V9.99996H23.9983V8.99607H4.00102V18.9977H4.99903V20.9997H2.99716C2.73196 20.9986 2.47805 20.8922 2.29125 20.704C2.10446 20.5157 2.00009 20.261 2.0011 19.9958V8.00001C2.00008 7.73481 2.10445 7.4801 2.29124 7.29184C2.47803 7.10358 2.73195 6.9974 2.99716 6.99635H24.9943ZM28.9961 10.996C29.1281 10.9955 29.2589 11.0212 29.3809 11.0714C29.5029 11.1217 29.6138 11.1957 29.7071 11.289C29.8004 11.3823 29.8743 11.4931 29.9246 11.6151C29.9749 11.7372 30.0005 11.8679 30 11.9999V23.9955C30.0005 24.1274 29.9749 24.2582 29.9246 24.3802C29.8743 24.5023 29.8004 24.6133 29.7071 24.7066C29.6138 24.8 29.5029 24.8739 29.3809 24.9242C29.2589 24.9744 29.1281 24.9999 28.9961 24.9994H6.99895C6.73375 24.9983 6.47983 24.8921 6.29304 24.7039C6.10625 24.5156 6.00188 24.2607 6.0029 23.9955V11.9999C6.00189 11.7347 6.10626 11.48 6.29305 11.2917C6.47984 11.1035 6.73375 10.9971 6.99895 10.996H28.9961ZM28.0001 12.998H26.1779C26.4765 13.854 27.1442 14.5197 28.0001 14.8183V12.998ZM24.0979 12.998H11.8952C11.8947 13.0007 11.8942 13.0016 11.8932 13.0054C11.7596 13.6546 11.4995 14.2587 11.1394 14.7906C10.4192 15.8545 9.30117 16.6286 8.00277 16.896V19.101C9.95296 19.5026 11.4967 21.0479 11.8952 22.9992H24.0978C24.4969 21.0453 26.0461 19.498 28 19.0989V16.8978C26.0462 16.4988 24.4969 14.9519 24.0979 12.998ZM9.81525 12.998H8.00282V14.8144C8.85473 14.5143 9.51754 13.8511 9.81525 12.998ZM17.9966 14.998C19.6415 14.998 21.0023 16.3488 21.0023 17.9938C21.0023 19.6387 19.6415 20.9997 17.9966 20.9997C16.3516 20.9997 15.0006 19.6387 15.0006 17.9938C15.0006 16.3488 16.3516 14.998 17.9966 14.998ZM17.9966 16.9977C17.4325 16.9977 17.0005 17.4297 17.0005 17.9938C17.0005 18.5579 17.4325 18.9977 17.9966 18.9977C18.5607 18.9977 19.0004 18.5579 19.0004 17.9938C19.0004 17.4297 18.5607 16.9977 17.9966 16.9977ZM28.0001 21.1792C27.1443 21.4777 26.4764 22.1437 26.1779 22.9994H28.0001V21.1792ZM8.00282 21.1812V22.9997H9.81525C9.51751 22.1466 8.85482 21.4812 8.00282 21.1812Z" fill="#1E40AF"/>
</svg>
