<svg width="29" height="29" viewBox="0 0 29 29" fill="none" xmlns="http://www.w3.org/2000/svg">
<g clip-path="url(#clip0_50_5336)">
<path d="M28 14.5C28 21.9558 21.9558 28 14.5 28C7.04416 28 1 21.9558 1 14.5C1 7.04416 7.04416 1 14.5 1C21.9558 1 28 7.04416 28 14.5Z" stroke="#1E40AF" stroke-width="2"/>
<path d="M18.7372 23.3449C17.2701 23.9751 15.6693 24.2304 14.079 24.0878C12.4886 23.9452 10.9588 23.4092 9.62722 22.528C8.29566 21.6468 7.20425 20.4482 6.45134 19.0402C5.69843 17.6321 5.30766 16.0589 5.31426 14.4622C5.32085 12.8655 5.7246 11.2955 6.48912 9.89369C7.25364 8.4919 8.35491 7.30235 9.6937 6.43221C11.0325 5.56207 12.5667 5.03869 14.1582 4.90923C15.7497 4.77976 17.3483 5.04828 18.8101 5.6906C16.6978 6.00308 14.7674 7.06222 13.369 8.67595C11.9706 10.2897 11.1968 12.3511 11.188 14.4864C11.1792 16.6217 11.9359 18.6895 13.3209 20.3147C14.7059 21.9399 16.6275 23.015 18.7372 23.3449Z" fill="#1E40AF"/>
</g>
<defs>
<clipPath id="clip0_50_5336">
<rect width="29" height="29" fill="white"/>
</clipPath>
</defs>
</svg>
