<svg width="24" height="20" viewBox="0 0 24 20" fill="none" xmlns="http://www.w3.org/2000/svg">
<path d="M22.3964 8.40988C21.7277 7.74786 20.9012 7.27068 19.9964 7.02434C20.3586 6.53367 20.6153 5.97226 20.7501 5.37594C20.885 4.77962 20.8949 4.16152 20.7794 3.5611C20.6639 2.96068 20.4254 2.39114 20.0792 1.88886C19.733 1.38658 19.2867 0.962592 18.7688 0.64398C18.2509 0.325368 17.6727 0.119133 17.0713 0.0384457C16.4698 -0.0422416 15.8583 0.00439251 15.2757 0.17537C14.6932 0.346347 14.1524 0.63791 13.6879 1.03144C13.2234 1.42496 12.8455 1.91181 12.5782 2.46087C12.3866 2.43166 12.1936 2.41331 12 2.40589C11.8074 2.39504 11.6144 2.39504 11.4218 2.40589C11.1343 1.88777 10.7457 1.43368 10.2795 1.07097C9.81326 0.708261 9.279 0.444441 8.70891 0.295406C8.13882 0.14637 7.5447 0.115202 6.96235 0.20378C6.37999 0.292358 5.82145 0.498849 5.32037 0.810812C4.8193 1.12278 4.38606 1.53375 4.04675 2.01899C3.70745 2.50422 3.4691 3.05367 3.34607 3.63423C3.22304 4.21479 3.21788 4.81445 3.33089 5.39708C3.4439 5.9797 3.67274 6.53324 4.00364 7.02434C3.09532 7.27576 2.26556 7.7564 1.59273 8.42088C0.573066 9.45129 0.000306752 10.8472 0 12.3026C0 13.1775 0.344804 14.0166 0.95856 14.6352C1.57232 15.2539 2.40475 15.6015 3.27273 15.6015H4.44C4.39248 15.9661 4.36698 16.3333 4.36364 16.7011C4.36364 17.576 4.70844 18.4151 5.3222 19.0338C5.93595 19.6524 6.76838 20 7.63636 20H16.3636C17.2316 20 18.064 19.6524 18.6778 19.0338C19.2916 18.4151 19.6364 17.576 19.6364 16.7011C19.633 16.3333 19.6075 15.9661 19.56 15.6015H20.7273C21.5953 15.6015 22.4277 15.2539 23.0414 14.6352C23.6552 14.0166 24 13.1775 24 12.3026C23.9998 11.5793 23.8581 10.8632 23.5829 10.1952C23.3078 9.5272 22.9045 8.92051 22.3964 8.40988ZM16.3636 2.40589C16.9423 2.40589 17.4972 2.6376 17.9064 3.05004C18.3156 3.46248 18.5455 4.02187 18.5455 4.60515C18.5455 5.18843 18.3156 5.74782 17.9064 6.16027C17.4972 6.57271 16.9423 6.80442 16.3636 6.80442C16.3603 6.12529 16.2009 5.45617 15.8981 4.84949C15.5953 4.24281 15.1572 3.71506 14.6182 3.30759C14.8191 3.0304 15.0816 2.80447 15.3847 2.64789C15.6878 2.49132 16.0231 2.40844 16.3636 2.40589ZM14.1818 6.80442C14.1818 7.23939 14.0539 7.66459 13.8141 8.02626C13.5744 8.38793 13.2336 8.66982 12.8349 8.83627C12.4363 9.00273 11.9976 9.04628 11.5743 8.96142C11.1511 8.87656 10.7624 8.6671 10.4572 8.35953C10.1521 8.05196 9.94429 7.66009 9.8601 7.23347C9.77592 6.80686 9.81913 6.36466 9.98426 5.96279C10.1494 5.56093 10.429 5.21745 10.7878 4.9758C11.1466 4.73414 11.5685 4.60515 12 4.60515C12.5787 4.60515 13.1336 4.83686 13.5428 5.2493C13.9519 5.66174 14.1818 6.22114 14.1818 6.80442ZM7.63636 2.40589C7.97693 2.40844 8.31218 2.49132 8.61527 2.64789C8.91837 2.80447 9.18089 3.0304 9.38182 3.30759C8.84281 3.71506 8.40473 4.24281 8.10191 4.84949C7.79908 5.45617 7.63974 6.12529 7.63636 6.80442C7.05771 6.80442 6.50276 6.57271 6.09359 6.16027C5.68441 5.74782 5.45455 5.18843 5.45455 4.60515C5.45455 4.02187 5.68441 3.46248 6.09359 3.05004C6.50276 2.6376 7.05771 2.40589 7.63636 2.40589ZM3.27273 13.4022C2.9834 13.4022 2.70592 13.2864 2.50134 13.0801C2.29675 12.8739 2.18182 12.5942 2.18182 12.3026C2.18182 11.4277 2.52662 10.5886 3.14038 9.9699C3.75413 9.35124 4.58656 9.00368 5.45455 9.00368H8.24727C8.3993 9.26476 8.57456 9.51136 8.77091 9.74043C7.16717 10.4991 5.87242 11.7925 5.10545 13.4022H3.27273ZM16.3636 17.8007H7.63636C7.34704 17.8007 7.06956 17.6849 6.86497 17.4787C6.66039 17.2724 6.54545 16.9927 6.54545 16.7011C6.54545 15.2429 7.12013 13.8444 8.14305 12.8133C9.16598 11.7822 10.5534 11.2029 12 11.2029C13.4466 11.2029 14.834 11.7822 15.8569 12.8133C16.8799 13.8444 17.4545 15.2429 17.4545 16.7011C17.4545 16.9927 17.3396 17.2724 17.135 17.4787C16.9304 17.6849 16.653 17.8007 16.3636 17.8007ZM20.7273 13.4022H18.8945C18.1386 11.7998 16.8602 10.5073 15.2727 9.74043C15.4691 9.51136 15.6443 9.26476 15.7964 9.00368H18.5455C19.4134 9.00368 20.2459 9.35124 20.8596 9.9699C21.4734 10.5886 21.8182 11.4277 21.8182 12.3026C21.8182 12.5942 21.7032 12.8739 21.4987 13.0801C21.2941 13.2864 21.0166 13.4022 20.7273 13.4022Z" fill="white"/>
</svg>
