<svg width="24" height="24" viewBox="0 0 24 24" fill="none" xmlns="http://www.w3.org/2000/svg">
<g clip-path="url(#clip0_74_6249)">
<path d="M16.8803 9.80003C16.6451 8.64696 16.0761 7.5885 15.2439 6.75637C14.4118 5.92424 13.3533 5.35519 12.2003 5.12003C11.9351 5.06698 11.6596 5.12147 11.4346 5.2715C11.2095 5.42153 11.0533 5.65481 11.0003 5.92003C10.9472 6.18524 11.0017 6.46067 11.1517 6.68571C11.3018 6.91076 11.5351 7.06698 11.8003 7.12003C12.569 7.2768 13.2746 7.65617 13.8294 8.21092C14.3841 8.76567 14.7635 9.47131 14.9203 10.24C14.967 10.4693 15.0927 10.6749 15.2754 10.8211C15.4581 10.9673 15.6863 11.0447 15.9203 11.04H16.1203C16.2536 11.0121 16.3797 10.9572 16.491 10.8788C16.6023 10.8003 16.6965 10.7 16.7676 10.5839C16.8388 10.4678 16.8855 10.3384 16.9048 10.2036C16.9242 10.0688 16.9159 9.93147 16.8803 9.80003Z" fill="white"/>
<path d="M22.7102 21.29L18.7102 17.29C20.3327 15.3032 21.1297 12.7689 20.9364 10.211C20.7431 7.65319 19.5742 5.26744 17.6715 3.54709C15.7688 1.82673 13.2778 0.903332 10.7134 0.967825C8.1491 1.03232 5.70761 2.07977 3.89378 3.8936C2.07995 5.70742 1.0325 8.14891 0.968008 10.7132C0.903515 13.2776 1.82691 15.7686 3.54727 17.6713C5.26763 19.5741 7.65338 20.7429 10.2112 20.9362C12.7691 21.1295 15.3034 20.3325 17.2902 18.71L21.2902 22.71C21.3831 22.8037 21.4937 22.8781 21.6156 22.9289C21.7375 22.9797 21.8682 23.0058 22.0002 23.0058C22.1322 23.0058 22.2629 22.9797 22.3848 22.9289C22.5066 22.8781 22.6172 22.8037 22.7102 22.71C22.8039 22.617 22.8783 22.5064 22.9291 22.3846C22.9798 22.2627 23.006 22.132 23.006 22C23.006 21.868 22.9798 21.7373 22.9291 21.6154C22.8783 21.4936 22.8039 21.383 22.7102 21.29ZM11.0002 19C9.41793 19 7.87121 18.5308 6.55562 17.6518C5.24002 16.7727 4.21464 15.5233 3.60914 14.0615C3.00364 12.5997 2.84522 10.9911 3.1539 9.43927C3.46258 7.88743 4.2245 6.46196 5.34333 5.34314C6.46215 4.22432 7.88761 3.4624 9.43946 3.15371C10.9913 2.84503 12.5998 3.00346 14.0616 3.60896C15.5235 4.21446 16.7729 5.23984 17.6519 6.55543C18.531 7.87103 19.0002 9.41775 19.0002 11C19.0002 13.1217 18.1573 15.1566 16.657 16.6569C15.1567 18.1571 13.1219 19 11.0002 19Z" fill="white"/>
</g>
<defs>
<clipPath id="clip0_74_6249">
<rect width="24" height="24" fill="white"/>
</clipPath>
</defs>
</svg>
