<svg width="24" height="26" viewBox="0 0 24 26" fill="none" xmlns="http://www.w3.org/2000/svg">
<path d="M5.96597 5.92531L5.96582 5.92526L3.29643 4.96625C2.29708 6.11177 1.52902 7.44334 1.04077 8.88787L3.2095 10.738C3.20953 10.738 3.20955 10.738 3.20958 10.738C3.31218 10.8255 3.40744 10.9213 3.49444 11.0242L3.49446 11.0242C4.37796 12.0697 4.25155 13.6361 3.2096 14.5251L3.20956 14.5251L1.04076 16.3753C1.52901 17.8199 2.29708 19.1515 3.29642 20.2969L5.9655 19.338C6.09326 19.2921 6.22375 19.2571 6.35547 19.2329L6.35609 19.2328C7.70763 18.9852 8.996 19.8858 9.24055 21.2332L9.24058 21.2334L9.75009 24.0434C10.4851 24.1891 11.2375 24.2632 12 24.2632C12.7619 24.2632 13.5138 24.1891 14.2485 24.0438L14.7594 21.2335C14.7594 21.2334 14.7594 21.2332 14.7595 21.2331C14.7835 21.1005 14.8183 20.9702 14.8634 20.8433L14.8635 20.8431C15.3226 19.5522 16.7407 18.8735 18.0339 19.3378L18.0341 19.3379L20.7035 20.2969C21.7028 19.1515 22.4709 17.82 22.9593 16.3754L20.7904 14.5251L20.7901 14.5248C20.6882 14.4379 20.5928 14.3423 20.5055 14.2389L5.96597 5.92531ZM5.96597 5.92531C7.25936 6.38974 8.67739 5.71097 9.13655 4.41993L9.13657 4.41988C9.18167 4.29305 9.21649 4.16263 9.24055 4.02997L9.24056 4.02991L9.75011 1.21967C10.4852 1.07409 11.2376 1 12 1C12.7619 1 13.5138 1.074 14.2485 1.2194M5.96597 5.92531L14.2485 1.2194M14.2485 1.2194L14.7594 4.02996C15.004 5.37726 16.2922 6.27797 17.6439 6.03035C17.7767 6.00602 17.9071 5.9709 18.0339 5.92537L18.0341 5.9253L20.7035 4.96627C21.7028 6.11173 22.4709 7.44324 22.9593 8.88778L20.7904 10.738L20.7903 10.7381C19.7485 11.627 19.6221 13.1933 20.5054 14.2388L14.2485 1.2194ZM23.09 16.4869C23.0898 16.4868 23.0897 16.4866 23.0895 16.4865L23.09 16.4869L23.09 16.4869ZM20.7827 20.6038L20.8713 20.3571L20.871 20.357C20.8711 20.3571 20.8712 20.3571 20.8713 20.3571L20.7827 20.6038ZM14.2174 24.2145C14.2175 24.2144 14.2175 24.2143 14.2175 24.2143L14.2174 24.2145ZM9.57995 24.0084C9.58025 24.0084 9.58055 24.0085 9.58085 24.0086C9.58056 24.0085 9.58027 24.0084 9.57997 24.0084L9.57995 24.0084ZM23.0893 8.77686C23.0895 8.77665 23.0898 8.77645 23.09 8.77624L23.09 8.77626L23.0893 8.77686ZM20.8713 4.90597C20.8713 4.90599 20.8712 4.90602 20.8711 4.90604L20.8713 4.90597ZM0.910443 16.4865C0.910259 16.4866 0.910075 16.4868 0.90989 16.4869L0.90994 16.4869L0.910443 16.4865ZM0.90989 8.77621C0.910013 8.77632 0.910136 8.77642 0.910259 8.77653L0.909941 8.77626L0.90989 8.77621ZM3.12861 4.90596L3.12864 4.90597L3.12861 4.90596ZM7.34757 12.6314C7.34757 15.2106 9.42189 17.3169 11.9997 17.3169C14.5776 17.3169 16.6519 15.2106 16.6519 12.6314C16.6519 10.0523 14.5776 7.946 11.9997 7.946C9.42189 7.946 7.34757 10.0523 7.34757 12.6314Z" stroke="#1E40AF" stroke-width="2"/>
</svg>
