<svg width="24" height="26" viewBox="0 0 24 26" fill="none" xmlns="http://www.w3.org/2000/svg">
<mask id="path-1-inside-1_94_9026" fill="white">
<path d="M0.0358979 8.74204C0.582096 7.04475 1.48184 5.48676 2.66905 4.1664C2.8698 3.94313 3.18476 3.86354 3.46675 3.96486L6.30392 4.98415C7.07311 5.26035 7.9195 4.85771 8.19437 4.08484C8.2214 4.00883 8.24222 3.93077 8.2566 3.8515L8.79712 0.870438C8.85086 0.574044 9.07742 0.339587 9.3707 0.27685C10.2288 0.0933364 11.1086 0 12 0C12.8908 0 13.7701 0.0932311 14.6277 0.276513C14.9209 0.339187 15.1475 0.573497 15.2013 0.869785L15.7434 3.85137C15.8899 4.65878 16.66 5.19395 17.4637 5.04672C17.5428 5.03223 17.6205 5.01132 17.696 4.98419L20.5332 3.96486C20.8152 3.86354 21.1301 3.94313 21.3309 4.1664C22.5181 5.48676 23.4178 7.04475 23.9642 8.74204C24.0562 9.02837 23.9673 9.34228 23.739 9.53704L21.4394 11.4988C20.8168 12.03 20.7407 12.9678 21.2693 13.5934C21.3213 13.655 21.3782 13.7121 21.4394 13.7643L23.739 15.7261C23.9673 15.9209 24.0562 16.2348 23.9642 16.5211C23.4178 18.2185 22.5181 19.7765 21.3309 21.0967C21.1301 21.3199 20.8152 21.3996 20.5332 21.2983L17.696 20.279C16.927 20.0029 16.0805 20.4055 15.8056 21.1782C15.7786 21.2542 15.7578 21.3324 15.7433 21.412L15.2013 24.3934C15.1475 24.6897 14.9209 24.9239 14.6277 24.9866C13.7701 25.1699 12.8908 25.2632 12 25.2632C11.1086 25.2632 10.2288 25.1699 9.3707 24.9862C9.07742 24.9235 8.85086 24.6891 8.79712 24.3928L8.25662 21.4118C8.11008 20.6043 7.33987 20.0692 6.53628 20.2164C6.45725 20.2309 6.37955 20.2518 6.30405 20.279L3.46675 21.2983C3.18476 21.3996 2.8698 21.3199 2.66905 21.0967C1.48184 19.7765 0.582096 18.2185 0.0358979 16.5211C-0.0562412 16.2348 0.0326001 15.9209 0.260934 15.7261L2.56055 13.7643C3.18319 13.2331 3.25935 12.2953 2.73066 11.6697C2.67867 11.6082 2.62178 11.551 2.56057 11.4988L0.260934 9.53704C0.0326001 9.34228 -0.0562412 9.02837 0.0358979 8.74204ZM8.34757 12.6314C8.34757 14.6669 9.9827 16.3169 11.9997 16.3169C14.0168 16.3169 15.6519 14.6669 15.6519 12.6314C15.6519 10.596 14.0168 8.946 11.9997 8.946C9.9827 8.946 8.34757 10.596 8.34757 12.6314Z"/>
</mask>
<path d="M0.0358979 8.74204L-1.39199 8.28253L-1.39199 8.28255L0.0358979 8.74204ZM2.66905 4.1664L3.78446 5.16933L3.7845 5.16929L2.66905 4.1664ZM3.46675 3.96486L2.95955 5.37651L2.95959 5.37652L3.46675 3.96486ZM6.30392 4.98415L5.79677 6.39581L5.797 6.3959L6.30392 4.98415ZM8.19437 4.08484L9.60765 4.58747L9.60768 4.58739L8.19437 4.08484ZM8.2566 3.8515L9.73252 4.11922L9.73254 4.11911L8.2566 3.8515ZM8.79712 0.870438L10.2731 1.13805L10.2731 1.13804L8.79712 0.870438ZM9.3707 0.27685L9.05701 -1.18998L9.05693 -1.18996L9.3707 0.27685ZM14.6277 0.276513L14.9413 -1.19035L14.9412 -1.19036L14.6277 0.276513ZM15.2013 0.869785L13.7255 1.13808V1.13808L15.2013 0.869785ZM15.7434 3.85137L17.2193 3.58349L17.2192 3.58307L15.7434 3.85137ZM17.4637 5.04672L17.1934 3.57127L17.1934 3.57127L17.4637 5.04672ZM17.696 4.98419L18.2029 6.39595L18.2032 6.39585L17.696 4.98419ZM20.5332 3.96486L21.0404 5.37652L21.0405 5.37648L20.5332 3.96486ZM21.3309 4.1664L20.2155 5.16935L20.2155 5.16936L21.3309 4.1664ZM23.9642 8.74204L25.3922 8.28302L25.392 8.28241L23.9642 8.74204ZM23.739 9.53704L22.7655 8.39584L22.7655 8.39587L23.739 9.53704ZM21.4394 11.4988L20.4659 10.3576L20.4657 10.3578L21.4394 11.4988ZM21.2693 13.5934L22.4152 12.6255L22.415 12.6253L21.2693 13.5934ZM21.4394 13.7643L20.4654 14.9051L20.4659 14.9055L21.4394 13.7643ZM23.739 15.7261L22.7655 16.8673L22.7655 16.8673L23.739 15.7261ZM23.9642 16.5211L25.392 16.9807L25.3922 16.9801L23.9642 16.5211ZM21.3309 21.0967L22.4462 22.0998L22.4462 22.0997L21.3309 21.0967ZM20.5332 21.2983L21.0404 19.8866L21.0404 19.8866L20.5332 21.2983ZM17.696 20.279L18.2032 18.8673L18.2028 18.8672L17.696 20.279ZM15.8056 21.1782L14.3924 20.6755L14.3923 20.6758L15.8056 21.1782ZM15.7433 21.412L17.2191 21.6803L17.2192 21.6797L15.7433 21.412ZM15.2013 24.3934L13.7255 24.1251L13.7255 24.1251L15.2013 24.3934ZM14.6277 24.9866L14.9411 26.4535L14.9417 26.4534L14.6277 24.9866ZM9.3707 24.9862L9.6846 23.5194L9.68458 23.5194L9.3707 24.9862ZM8.79712 24.3928L7.32119 24.6604L7.3212 24.6604L8.79712 24.3928ZM8.25662 21.4118L9.73256 21.1442L9.73251 21.1439L8.25662 21.4118ZM6.53628 20.2164L6.266 18.741L6.26504 18.7411L6.53628 20.2164ZM6.30405 20.279L6.81118 21.6906L6.81187 21.6904L6.30405 20.279ZM3.46675 21.2983L3.97386 22.7099L3.97388 22.7099L3.46675 21.2983ZM2.66905 21.0967L1.55369 22.0997L1.5537 22.0997L2.66905 21.0967ZM0.0358979 16.5211L-1.392 16.9806L-1.39199 16.9806L0.0358979 16.5211ZM0.260934 15.7261L1.23437 16.8673L1.23444 16.8673L0.260934 15.7261ZM2.56055 13.7643L3.53406 14.9055L3.53413 14.9055L2.56055 13.7643ZM2.73066 11.6697L3.87635 10.7015L3.87634 10.7015L2.73066 11.6697ZM2.56057 11.4988L1.58706 12.64L1.58717 12.6401L2.56057 11.4988ZM0.260934 9.53704L1.23444 8.39587L1.23437 8.3958L0.260934 9.53704ZM1.46378 9.20154C1.9448 7.70681 2.73752 6.33369 3.78446 5.16933L1.55364 3.16348C0.22617 4.63983 -0.780608 6.3827 -1.39199 8.28253L1.46378 9.20154ZM3.7845 5.16929C3.57881 5.39807 3.25285 5.48189 2.95955 5.37651L3.97395 2.55322C3.11667 2.2452 2.16078 2.48819 1.55361 3.16352L3.7845 5.16929ZM2.95959 5.37652L5.79677 6.39581L6.81108 3.57249L3.9739 2.5532L2.95959 5.37652ZM5.797 6.3959C7.35248 6.95443 9.05634 6.1376 9.60765 4.58747L6.78109 3.5822C6.78064 3.58346 6.78066 3.58308 6.78148 3.58172C6.78226 3.58044 6.78329 3.57904 6.78448 3.57773C6.78674 3.57527 6.78871 3.57403 6.79014 3.57335C6.79158 3.57267 6.79453 3.57157 6.7994 3.57129C6.80193 3.57115 6.80457 3.57126 6.80707 3.57161C6.80966 3.57198 6.81103 3.57247 6.81085 3.5724L5.797 6.3959ZM9.60768 4.58739C9.66181 4.43515 9.70361 4.27855 9.73252 4.11922L6.78069 3.58377C6.78083 3.58298 6.78098 3.58252 6.78106 3.58229L9.60768 4.58739ZM9.73254 4.11911L10.2731 1.13805L7.32119 0.602824L6.78067 3.58388L9.73254 4.11911ZM10.2731 1.13804C10.2189 1.43657 9.98926 1.67847 9.68447 1.74367L9.05693 -1.18996C8.16558 -0.999293 7.48279 -0.288478 7.32119 0.602836L10.2731 1.13804ZM9.68439 1.74368C10.4389 1.58232 11.2136 1.5 12 1.5V-1.5C11.0037 -1.5 10.0187 -1.39565 9.05701 -1.18998L9.68439 1.74368ZM12 1.5C12.7859 1.5 13.5601 1.58223 14.3142 1.74339L14.9412 -1.19036C13.9801 -1.39576 12.9957 -1.5 12 -1.5V1.5ZM14.3142 1.74337C14.0094 1.67822 13.7797 1.43642 13.7255 1.13808L16.6771 0.601488C16.5152 -0.289425 15.8325 -0.999849 14.9413 -1.19035L14.3142 1.74337ZM13.7255 1.13808L14.2676 4.11967L17.2192 3.58307L16.6771 0.601486L13.7255 1.13808ZM14.2675 4.11925C14.561 5.7365 16.1083 6.81998 17.734 6.52216L17.1934 3.57127C17.1933 3.57129 17.1948 3.57103 17.1974 3.57109C17.2 3.57115 17.2026 3.57147 17.205 3.57201C17.2096 3.57305 17.2121 3.57452 17.2131 3.57521C17.214 3.5759 17.2155 3.57713 17.2171 3.57955C17.2179 3.58085 17.2186 3.58221 17.2191 3.58342C17.2196 3.58472 17.2195 3.58493 17.2193 3.58349L14.2675 4.11925ZM17.734 6.52217C17.8937 6.49292 18.0504 6.45069 18.2029 6.39595L17.1891 3.57243C17.1905 3.57195 17.192 3.57154 17.1934 3.57127L17.734 6.52217ZM18.2032 6.39585L21.0404 5.37652L20.0261 2.5532L17.1888 3.57253L18.2032 6.39585ZM21.0405 5.37648C20.747 5.48195 20.421 5.39797 20.2155 5.16935L22.4462 3.16346C21.8391 2.48828 20.8833 2.24513 20.026 2.55324L21.0405 5.37648ZM20.2155 5.16936C21.2624 6.33368 22.0551 7.70681 22.5363 9.20167L25.392 8.28241C24.7805 6.3827 23.7738 4.63984 22.4462 3.16345L20.2155 5.16936ZM22.5361 9.20106C22.4435 8.91287 22.5319 8.59511 22.7655 8.39584L24.7125 10.6782C25.4027 10.0895 25.6689 9.14386 25.3922 8.28302L22.5361 9.20106ZM22.7655 8.39587L20.4659 10.3576L22.4129 12.64L24.7125 10.6782L22.7655 8.39587ZM20.4657 10.3578C19.2143 11.4256 19.0628 13.3061 20.1235 14.5616L22.415 12.6253C22.4145 12.6247 22.4149 12.625 22.4156 12.6264C22.4163 12.6277 22.4169 12.629 22.4172 12.6302C22.4179 12.6323 22.4177 12.6329 22.4177 12.6321C22.4178 12.6314 22.4179 12.6322 22.4168 12.6344C22.4161 12.6357 22.4153 12.6371 22.4143 12.6384C22.4132 12.6398 22.4126 12.6402 22.4131 12.6398L20.4657 10.3578ZM20.1234 14.5614C20.2285 14.6859 20.3431 14.8007 20.4654 14.9051L22.4134 12.6235C22.4134 12.6236 22.4135 12.6237 22.4138 12.624C22.4141 12.6243 22.4145 12.6247 22.4152 12.6255L20.1234 14.5614ZM20.4659 14.9055L22.7655 16.8673L24.7125 14.5849L22.4129 12.6232L20.4659 14.9055ZM22.7655 16.8673C22.5319 16.668 22.4435 16.3503 22.5361 16.0621L25.3922 16.9801C25.6689 16.1193 25.4027 15.1737 24.7125 14.5849L22.7655 16.8673ZM22.5363 16.0615C22.0551 17.5564 21.2624 18.9296 20.2155 20.0937L22.4462 22.0997C23.7738 20.6234 24.7805 18.8805 25.392 16.9807L22.5363 16.0615ZM20.2156 20.0937C20.4211 19.8652 20.7469 19.7812 21.0404 19.8866L20.026 22.7099C20.8834 23.018 21.8391 22.7747 22.4462 22.0998L20.2156 20.0937ZM21.0404 19.8866L18.2032 18.8673L17.1889 21.6906L20.0261 22.7099L21.0404 19.8866ZM18.2028 18.8672C16.6476 18.3088 14.9437 19.1256 14.3924 20.6755L17.2189 21.681C17.2193 21.6798 17.2193 21.6802 17.2184 21.6815C17.2176 21.6828 17.2166 21.6842 17.2154 21.6855C17.2132 21.688 17.2112 21.6892 17.2099 21.6899C17.2085 21.6905 17.2056 21.6916 17.2007 21.6919C17.1982 21.692 17.1955 21.6919 17.193 21.6916C17.1904 21.6912 17.189 21.6907 17.1892 21.6907L18.2028 18.8672ZM14.3923 20.6758C14.338 20.8283 14.2963 20.9849 14.2674 21.1442L17.2192 21.6797L17.219 21.6806L14.3923 20.6758ZM14.2675 21.1437L13.7255 24.1251L16.6771 24.6617L17.2191 21.6803L14.2675 21.1437ZM13.7255 24.1251C13.7798 23.8264 14.0097 23.585 14.3138 23.5199L14.9417 26.4534C15.8321 26.2628 16.5151 25.553 16.6771 24.6617L13.7255 24.1251ZM14.3143 23.5197C13.5601 23.6809 12.7858 23.7632 12 23.7632V26.7632C12.9958 26.7632 13.9801 26.6588 14.9411 26.4535L14.3143 23.5197ZM12 23.7632C11.2135 23.7632 10.439 23.6809 9.6846 23.5194L9.0568 26.453C10.0187 26.6589 11.0037 26.7632 12 26.7632V23.7632ZM9.68458 23.5194C9.989 23.5846 10.2189 23.8263 10.273 24.1251L7.3212 24.6604C7.48288 25.5519 8.16584 26.2624 9.05683 26.453L9.68458 23.5194ZM10.2731 24.1252L9.73256 21.1442L6.78069 21.6794L7.32119 24.6604L10.2731 24.1252ZM9.73251 21.1439C9.43897 19.5266 7.89151 18.4432 6.266 18.741L6.80657 21.6919C6.80665 21.6919 6.80516 21.6921 6.80253 21.6921C6.79999 21.692 6.7974 21.6917 6.795 21.6911C6.79038 21.6901 6.78792 21.6886 6.78694 21.6879C6.78596 21.6873 6.78453 21.686 6.78295 21.6836C6.7821 21.6823 6.7814 21.681 6.78091 21.6797C6.78039 21.6784 6.78048 21.6782 6.78074 21.6796L9.73251 21.1439ZM6.26504 18.7411C6.10702 18.7702 5.95012 18.8122 5.79622 18.8675L6.81187 21.6904C6.80899 21.6914 6.80748 21.6917 6.80753 21.6917L6.26504 18.7411ZM5.79691 18.8673L2.95961 19.8866L3.97388 22.7099L6.81118 21.6906L5.79691 18.8673ZM2.95964 19.8866C3.25295 19.7812 3.57878 19.8651 3.7844 20.0937L1.5537 22.0997C2.16081 22.7748 3.11657 23.0179 3.97386 22.7099L2.95964 19.8866ZM3.78441 20.0937C2.73752 18.9295 1.94481 17.5565 1.46379 16.0616L-1.39199 16.9806C-0.780616 18.8805 0.226171 20.6234 1.55369 22.0997L3.78441 20.0937ZM1.4638 16.0617C1.55653 16.3498 1.46819 16.6679 1.23437 16.8673L-0.712499 14.5849C-1.40299 15.1738 -1.66901 16.1197 -1.392 16.9806L1.4638 16.0617ZM1.23444 16.8673L3.53406 14.9055L1.58704 12.6232L-0.712576 14.5849L1.23444 16.8673ZM3.53413 14.9055C4.78572 13.8376 4.93727 11.9569 3.87635 10.7015L1.58496 12.6379C1.58553 12.6386 1.58513 12.6382 1.58439 12.6368C1.5837 12.6356 1.58315 12.6342 1.58277 12.633C1.5821 12.6309 1.58233 12.6303 1.58228 12.631C1.58222 12.6317 1.5821 12.6309 1.58326 12.6286C1.58389 12.6274 1.58475 12.626 1.58577 12.6247C1.58684 12.6233 1.58746 12.6228 1.58697 12.6232L3.53413 14.9055ZM3.87634 10.7015C3.7718 10.5778 3.6573 10.4627 3.53397 10.3575L1.58717 12.6401C1.58626 12.6393 1.58555 12.6386 1.58498 12.6379L3.87634 10.7015ZM3.53408 10.3576L1.23444 8.39587L-0.712577 10.6782L1.58706 12.64L3.53408 10.3576ZM1.23437 8.3958C1.46817 8.59522 1.55655 8.91328 1.46379 9.20153L-1.39199 8.28255C-1.66903 9.14345 -1.40297 10.0893 -0.712499 10.6783L1.23437 8.3958ZM6.84757 12.6314C6.84757 15.4824 9.14148 17.8169 11.9997 17.8169V14.8169C10.8239 14.8169 9.84757 13.8513 9.84757 12.6314H6.84757ZM11.9997 17.8169C14.858 17.8169 17.1519 15.4824 17.1519 12.6314H14.1519C14.1519 13.8513 13.1756 14.8169 11.9997 14.8169V17.8169ZM17.1519 12.6314C17.1519 9.78045 14.858 7.446 11.9997 7.446V10.446C13.1756 10.446 14.1519 11.4116 14.1519 12.6314H17.1519ZM11.9997 7.446C9.14148 7.446 6.84757 9.78045 6.84757 12.6314H9.84757C9.84757 11.4116 10.8239 10.446 11.9997 10.446V7.446Z" fill="#1F40AF" mask="url(#path-1-inside-1_94_9026)"/>
</svg>
