<svg width="21" height="25" viewBox="0 0 21 25" fill="none" xmlns="http://www.w3.org/2000/svg">
<path d="M15.54 14.7777C16.7836 13.7419 17.6779 12.3479 18.1011 10.7857C18.5243 9.22345 18.4558 7.56875 17.905 6.04682C17.3541 4.52488 16.3478 3.20962 15.0228 2.28006C13.6978 1.3505 12.1185 0.851776 10.5 0.851776C8.88145 0.851776 7.30222 1.3505 5.97723 2.28006C4.65224 3.20962 3.64585 4.52488 3.09504 6.04682C2.54423 7.56875 2.47575 9.22345 2.89892 10.7857C3.32209 12.3479 4.21635 13.7419 5.46 14.7777C3.83662 15.4983 2.45691 16.674 1.48787 18.1625C0.518841 19.651 0.0020303 21.3885 0 23.1646C0 23.5127 0.138281 23.8465 0.384422 24.0927C0.630564 24.3388 0.964403 24.4771 1.3125 24.4771C1.6606 24.4771 1.99444 24.3388 2.24058 24.0927C2.48672 23.8465 2.625 23.5127 2.625 23.1646C2.625 21.4241 3.3164 19.7549 4.54711 18.5242C5.77782 17.2935 7.44702 16.6021 9.1875 16.6021H11.8125C13.553 16.6021 15.2222 17.2935 16.4529 18.5242C17.6836 19.7549 18.375 21.4241 18.375 23.1646C18.375 23.5127 18.5133 23.8465 18.7594 24.0927C19.0056 24.3388 19.3394 24.4771 19.6875 24.4771C20.0356 24.4771 20.3694 24.3388 20.6156 24.0927C20.8617 23.8465 21 23.5127 21 23.1646C20.998 21.3885 20.4812 19.651 19.5121 18.1625C18.5431 16.674 17.1634 15.4983 15.54 14.7777ZM10.5 3.4771C11.5384 3.4771 12.5534 3.78501 13.4167 4.36189C14.2801 4.93877 14.953 5.7587 15.3504 6.71802C15.7477 7.67733 15.8517 8.73293 15.6491 9.75133C15.4466 10.7697 14.9465 11.7052 14.2123 12.4394C13.4781 13.1736 12.5426 13.6737 11.5242 13.8762C10.5058 14.0788 9.45022 13.9748 8.49091 13.5775C7.5316 13.1801 6.71166 12.5072 6.13478 11.6438C5.55791 10.7805 5.25 9.76546 5.25 8.7271C5.25 7.33472 5.80312 5.99936 6.78769 5.01479C7.77225 4.03023 9.10761 3.4771 10.5 3.4771Z" fill="#F0F0F0"/>
</svg>
